Ptolemy-GreatPrimer18.ufo
<glyph name="exclam" format="1">
  <advance width="219"/>
  <unicode hex="0021"/>
  <outline>
    <contour>
      <point x="163" y="709" type="line"/>
      <point x="126" y="209" type="line"/>
      <point x="90" y="204" type="line"/>
      <point x="48" y="657" type="line"/>
      <point x="82" y="678"/>
      <point x="120" y="695"/>
      <point x="160" y="710" type="curve"/>
    </contour>
    <component base="period" xOffset="10"/>
  </outline>
</glyph>
<glyph name="ampersand" format="1">
  <advance width="738"/>
  <unicode hex="0026"/>
  <outline>
    <contour>
      <point x="439" y="198" type="curve"/>
      <point x="563" y="367" type="line"/>
      <point x="577" y="353"/>
      <point x="599" y="334"/>
      <point x="621" y="334" type="curve"/>
      <point x="650" y="334"/>
      <point x="720" y="446"/>
      <point x="738" y="502" type="curve"/>
      <point x="707" y="516" type="line"/>
      <point x="689" y="472"/>
      <point x="669" y="434"/>
      <point x="643" y="434" type="curve"/>
      <point x="627" y="434"/>
      <point x="606" y="450"/>
      <point x="597" y="468" type="curve"/>
      <point x="589" y="468" type="line"/>
      <point x="417" y="230" type="line"/>
      <point x="381" y="280"/>
      <point x="344" y="313"/>
      <point x="300" y="330" type="curve"/>
      <point x="336" y="351"/>
      <point x="376" y="393"/>
      <point x="376" y="431" type="curve"/>
      <point x="376" y="491"/>
      <point x="312" y="524"/>
      <point x="240" y="524" type="curve"/>
      <point x="167" y="524"/>
      <point x="88" y="480"/>
      <point x="88" y="408" type="curve"/>
      <point x="88" y="373"/>
      <point x="106" y="341"/>
      <point x="164" y="319" type="curve"/>
      <point x="100" y="289"/>
      <point x="30" y="236"/>
      <point x="30" y="148" type="curve"/>
      <point x="30" y="54"/>
      <point x="100" y="-10"/>
      <point x="184" y="-10" type="curve"/>
      <point x="277" y="-10"/>
      <point x="359" y="91"/>
      <point x="393" y="140" type="curve"/>
      <point x="441" y="60"/>
      <point x="486" y="-10"/>
      <point x="544" y="-10" type="curve"/>
      <point x="594" y="-10"/>
      <point x="666" y="66"/>
      <point x="692" y="105" type="curve"/>
      <point x="670" y="125" type="line"/>
      <point x="632" y="78"/>
      <point x="595" y="76"/>
      <point x="575" y="76" type="curve"/>
      <point x="518" y="76"/>
      <point x="478" y="128"/>
    </contour>
    <contour>
      <point x="148" y="418" type="curve"/>
      <point x="148" y="458"/>
      <point x="185" y="484"/>
      <point x="234" y="484" type="curve"/>
      <point x="282" y="484"/>
      <point x="316" y="458"/>
      <point x="316" y="418" type="curve"/>
      <point x="316" y="368"/>
      <point x="270" y="338"/>
      <point x="250" y="338" type="curve"/>
      <point x="190" y="338"/>
      <point x="148" y="378"/>
    </contour>
    <contour>
      <point x="373" y="175" type="curve"/>
      <point x="318" y="105"/>
      <point x="273" y="65"/>
      <point x="213" y="65" type="curve"/>
      <point x="138" y="65"/>
      <point x="105" y="117"/>
      <point x="105" y="173" type="curve"/>
      <point x="105" y="237"/>
      <point x="149" y="296"/>
      <point x="217" y="296" type="curve"/>
      <point x="268" y="296"/>
      <point x="331" y="245"/>
    </contour>
  </outline>
</glyph>
<glyph name="quotesingle" format="1">
  <advance width="196"/>
  <unicode hex="0027"/>
  <outline>
    <contour>
      <point x="102" y="710" type="curve"/>
      <point x="92" y="710" type="line"/>
      <point x="80" y="674"/>
      <point x="51" y="648"/>
      <point x="19" y="633" type="curve"/>
      <point x="19" y="623" type="line"/>
      <point x="55" y="608"/>
      <point x="75" y="577"/>
      <point x="75" y="531" type="curve"/>
      <point x="75" y="495"/>
      <point x="61" y="452"/>
      <point x="27" y="422" type="curve"/>
      <point x="40" y="403" type="line"/>
      <point x="95" y="431"/>
      <point x="136" y="488"/>
      <point x="136" y="545" type="curve"/>
      <point x="136" y="581"/>
      <point x="135" y="600"/>
      <point x="178" y="623" type="curve"/>
      <point x="178" y="633" type="line"/>
      <point x="143" y="647"/>
      <point x="111" y="679"/>
    </contour>
  </outline>
</glyph>
<glyph name="parenleft" format="1">
  <advance width="321"/>
  <unicode hex="0028"/>
  <outline>
    <contour>
      <point x="244" y="751" type="curve"/>
      <point x="271" y="732" type="line"/>
      <point x="191" y="608"/>
      <point x="125" y="429"/>
      <point x="125" y="239" type="curve"/>
      <point x="125" y="79"/>
      <point x="172" y="-95"/>
      <point x="271" y="-258" type="curve"/>
      <point x="243" y="-280" type="line"/>
      <point x="158" y="-159"/>
      <point x="58" y="19"/>
      <point x="58" y="239" type="curve"/>
      <point x="58" y="443"/>
      <point x="154" y="638"/>
    </contour>
  </outline>
</glyph>
<glyph name="comma" format="1">
  <advance width="196"/>
  <unicode hex="002C"/>
  <outline>
    <contour>
      <point x="102" y="141" type="curve"/>
      <point x="92" y="141" type="line"/>
      <point x="83" y="106"/>
      <point x="47" y="76"/>
      <point x="19" y="64" type="curve"/>
      <point x="19" y="54" type="line"/>
      <point x="59" y="35"/>
      <point x="75" y="-2"/>
      <point x="75" y="-43" type="curve"/>
      <point x="75" y="-74"/>
      <point x="61" y="-117"/>
      <point x="27" y="-147" type="curve"/>
      <point x="40" y="-166" type="line"/>
      <point x="95" y="-138"/>
      <point x="136" y="-81"/>
      <point x="136" y="-24" type="curve"/>
      <point x="136" y="12"/>
      <point x="135" y="29"/>
      <point x="178" y="54" type="curve"/>
      <point x="178" y="64" type="line"/>
      <point x="148" y="75"/>
      <point x="113" y="107"/>
    </contour>
  </outline>
</glyph>
<glyph name="hyphen" format="1">
  <advance width="286"/>
  <unicode hex="002D"/>
  <outline>
    <contour>
      <point x="26" y="105" type="line"/>
      <point x="24" y="106" type="line"/>
      <point x="20" y="184" type="line"/>
      <point x="258" y="332" type="line"/>
      <point x="261" y="331" type="line"/>
      <point x="266" y="242" type="line"/>
    </contour>
  </outline>
</glyph>
<glyph name="zero" format="1">
  <advance width="520"/>
  <unicode hex="0030"/>
  <outline>
    <contour>
      <point x="268" y="420" type="curve"/>
      <point x="139" y="420"/>
      <point x="40" y="320"/>
      <point x="40" y="204" type="curve"/>
      <point x="40" y="78"/>
      <point x="130" y="-10"/>
      <point x="252" y="-10" type="curve"/>
      <point x="363" y="-10"/>
      <point x="480" y="80"/>
      <point x="480" y="206" type="curve"/>
      <point x="480" y="336"/>
      <point x="380" y="420"/>
    </contour>
    <contour>
      <point x="257" y="41" type="curve"/>
      <point x="170" y="41"/>
      <point x="100" y="108"/>
      <point x="100" y="206" type="curve"/>
      <point x="100" y="304"/>
      <point x="164" y="371"/>
      <point x="255" y="371" type="curve"/>
      <point x="342" y="371"/>
      <point x="413" y="299"/>
      <point x="413" y="204" type="curve"/>
      <point x="413" y="106"/>
      <point x="350" y="41"/>
    </contour>
  </outline>
</glyph>
<glyph name="one" format="1">
  <advance width="295"/>
  <unicode hex="0031"/>
  <outline>
    <contour>
      <point x="247" y="65" type="line"/>
      <point x="255" y="28" type="line"/>
      <point x="208" y="17"/>
      <point x="168" y="4"/>
      <point x="121" y="-10" type="curve"/>
      <point x="111" y="0" type="line"/>
      <point x="116" y="127"/>
      <point x="117" y="222"/>
      <point x="115" y="356" type="curve"/>
      <point x="55" y="348" type="line"/>
      <point x="50" y="385" type="line"/>
      <point x="97" y="396"/>
      <point x="139" y="405"/>
      <point x="186" y="420" type="curve"/>
      <point x="191" y="415" type="line"/>
      <point x="187" y="292"/>
      <point x="183" y="170"/>
      <point x="184" y="47" type="curve"/>
    </contour>
  </outline>
</glyph>
<glyph name="two" format="1">
  <advance width="516"/>
  <unicode hex="0032"/>
  <outline>
    <contour>
      <point x="94" y="329" type="curve"/>
      <point x="42" y="293" type="line"/>
      <point x="30" y="311" type="line"/>
      <point x="113" y="374" type="line" smooth="yes"/>
      <point x="154" y="405"/>
      <point x="184" y="420"/>
      <point x="218" y="420" type="curve"/>
      <point x="288" y="420"/>
      <point x="347" y="366"/>
      <point x="347" y="293" type="curve"/>
      <point x="347" y="263"/>
      <point x="335" y="222"/>
      <point x="282" y="180" type="curve"/>
      <point x="130" y="59" type="line"/>
      <point x="390" y="59" type="line" smooth="yes"/>
      <point x="449" y="59"/>
      <point x="476" y="88"/>
      <point x="508" y="121" type="curve"/>
      <point x="516" y="115" type="line"/>
      <point x="434" y="0" type="line"/>
      <point x="34" y="0" type="line"/>
      <point x="30" y="10" type="line"/>
      <point x="208" y="161" type="line" smooth="yes"/>
      <point x="262" y="206"/>
      <point x="282" y="232"/>
      <point x="282" y="270" type="curve"/>
      <point x="282" y="322"/>
      <point x="236" y="359"/>
      <point x="184" y="359" type="curve"/>
      <point x="151" y="359"/>
      <point x="125" y="351"/>
    </contour>
  </outline>
</glyph>
<glyph name="three" format="1">
  <advance width="424"/>
  <unicode hex="0033"/>
  <outline>
    <contour>
      <point x="238" y="158" type="curve"/>
      <point x="182" y="108" type="line"/>
      <point x="247" y="92"/>
      <point x="300" y="54"/>
      <point x="300" y="-2" type="curve"/>
      <point x="300" y="-101"/>
      <point x="165" y="-239"/>
      <point x="88" y="-239" type="curve"/>
      <point x="33" y="-239"/>
      <point x="32" y="-209"/>
      <point x="6" y="-209" type="curve"/>
      <point x="-10" y="-209"/>
      <point x="-20" y="-218"/>
      <point x="-20" y="-231" type="curve"/>
      <point x="-20" y="-265"/>
      <point x="29" y="-280"/>
      <point x="57" y="-280" type="curve"/>
      <point x="200" y="-280"/>
      <point x="374" y="-69"/>
      <point x="374" y="22" type="curve"/>
      <point x="374" y="92"/>
      <point x="302" y="129"/>
    </contour>
    <contour>
      <point x="62" y="29" type="line"/>
      <point x="219" y="120" type="line"/>
      <point x="285" y="169" type="line" smooth="yes"/>
      <point x="334" y="206"/>
      <point x="369" y="250"/>
      <point x="369" y="301" type="curve"/>
      <point x="369" y="354"/>
      <point x="309" y="422"/>
      <point x="248" y="422" type="curve"/>
      <point x="212" y="422"/>
      <point x="99" y="369"/>
      <point x="42" y="344" type="curve"/>
      <point x="51" y="320" type="line"/>
      <point x="94" y="337"/>
      <point x="158" y="362"/>
      <point x="206" y="362" type="curve"/>
      <point x="254" y="362"/>
      <point x="294" y="325"/>
      <point x="294" y="273" type="curve"/>
      <point x="294" y="228"/>
      <point x="269" y="189"/>
      <point x="215" y="156" type="curve"/>
      <point x="47" y="53" type="line"/>
    </contour>
  </outline>
</glyph>
<glyph name="four" format="1">
  <advance width="527"/>
  <unicode hex="0034"/>
  <outline>
    <contour>
      <point x="0" y="48" type="line"/>
      <point x="359" y="415" type="line"/>
      <point x="364" y="410" type="line"/>
      <point x="364" y="55" type="line"/>
      <point x="426" y="55"/>
      <point x="462" y="68"/>
      <point x="502" y="99" type="curve"/>
      <point x="507" y="94" type="line"/>
      <point x="459" y="0" type="line"/>
      <point x="365" y="0" type="line"/>
      <point x="365" y="-265" type="line"/>
      <point x="308" y="-280" type="line"/>
      <point x="306" y="-279" type="line"/>
      <point x="306" y="0" type="line"/>
      <point x="0" y="0" type="line"/>
    </contour>
    <contour>
      <point x="60" y="55" type="line"/>
      <point x="304" y="55" type="line"/>
      <point x="304" y="299" type="line"/>
    </contour>
  </outline>
</glyph>
<glyph name="five" format="1">
  <advance width="426"/>
  <unicode hex="0035"/>
  <outline>
    <contour>
      <point x="84" y="87" type="curve"/>
      <point x="83" y="46" type="line"/>
      <point x="155" y="97"/>
      <point x="197" y="117"/>
      <point x="234" y="117" type="curve"/>
      <point x="277" y="117"/>
      <point x="305" y="92"/>
      <point x="305" y="29" type="curve"/>
      <point x="305" y="-96"/>
      <point x="161" y="-240"/>
      <point x="99" y="-240" type="curve"/>
      <point x="61" y="-240"/>
      <point x="52" y="-209"/>
      <point x="27" y="-209" type="curve"/>
      <point x="10" y="-209"/>
      <point x="0" y="-218"/>
      <point x="0" y="-235" type="curve"/>
      <point x="0" y="-265"/>
      <point x="36" y="-280"/>
      <point x="70" y="-280" type="curve"/>
      <point x="213" y="-280"/>
      <point x="376" y="-49"/>
      <point x="376" y="65" type="curve"/>
      <point x="376" y="139"/>
      <point x="331" y="167"/>
      <point x="280" y="167" type="curve"/>
      <point x="227" y="167"/>
      <point x="156" y="139"/>
    </contour>
    <contour>
      <point x="132" y="361" type="line"/>
      <point x="72" y="353" type="line"/>
      <point x="72" y="53" type="line"/>
      <point x="83" y="46" type="line"/>
      <point x="132" y="97" type="line"/>
    </contour>
    <contour>
      <point x="328" y="459" type="line"/>
      <point x="72" y="353" type="line"/>
      <point x="88" y="296" type="line"/>
      <point x="299" y="372" type="line"/>
      <point x="315" y="338" type="line"/>
      <point x="334" y="345" type="line"/>
      <point x="331" y="395"/>
      <point x="332" y="424"/>
      <point x="334" y="452" type="curve"/>
    </contour>
  </outline>
</glyph>
<glyph name="six" format="1">
  <advance width="481"/>
  <unicode hex="0036"/>
  <outline>
    <contour>
      <point x="264" y="408" type="curve"/>
      <point x="108" y="332" type="line"/>
      <point x="117" y="264" type="line"/>
      <point x="130" y="306"/>
      <point x="173" y="346"/>
      <point x="223" y="346" type="curve"/>
      <point x="300" y="346"/>
      <point x="361" y="274"/>
      <point x="361" y="185" type="curve"/>
      <point x="361" y="111"/>
      <point x="338" y="55"/>
      <point x="273" y="55" type="curve"/>
      <point x="196" y="55"/>
      <point x="122" y="138"/>
      <point x="122" y="262" type="curve"/>
      <point x="122" y="417"/>
      <point x="242" y="547"/>
      <point x="430" y="649" type="curve"/>
      <point x="430" y="652" type="line"/>
      <point x="402" y="675" type="line"/>
      <point x="176" y="558"/>
      <point x="50" y="378"/>
      <point x="50" y="225" type="curve"/>
      <point x="50" y="101"/>
      <point x="145" y="-10"/>
      <point x="240" y="-10" type="curve"/>
      <point x="314" y="-10"/>
      <point x="431" y="111"/>
      <point x="431" y="223" type="curve"/>
      <point x="431" y="326"/>
      <point x="354" y="398"/>
    </contour>
  </outline>
</glyph>
<glyph name="seven" format="1">
  <advance width="537"/>
  <unicode hex="0037"/>
  <outline>
    <contour>
      <point x="517" y="330" type="curve"/>
      <point x="510" y="370" type="line"/>
      <point x="474" y="366"/>
      <point x="439" y="365"/>
      <point x="403" y="365" type="curve"/>
      <point x="59" y="365" type="line"/>
      <point x="22" y="268" type="line"/>
      <point x="31" y="263" type="line"/>
      <point x="46" y="282"/>
      <point x="81" y="305"/>
      <point x="182" y="305" type="curve"/>
      <point x="425" y="305" type="line"/>
      <point x="27" y="-72" type="line"/>
      <point x="40" y="-137" type="line"/>
      <point x="46" y="-140" type="line"/>
      <point x="423" y="248" type="line" smooth="yes"/>
      <point x="450" y="275"/>
      <point x="490" y="315"/>
    </contour>
  </outline>
</glyph>
<glyph name="eight" format="1">
  <advance width="523"/>
  <unicode hex="0038"/>
  <outline>
    <contour>
      <point x="473" y="155" type="curve"/>
      <point x="473" y="235"/>
      <point x="409" y="293"/>
      <point x="317" y="342" type="curve"/>
      <point x="386" y="386"/>
      <point x="457" y="432"/>
      <point x="457" y="498" type="curve"/>
      <point x="457" y="589"/>
      <point x="354" y="635"/>
      <point x="262" y="635" type="curve"/>
      <point x="169" y="635"/>
      <point x="61" y="588"/>
      <point x="61" y="492" type="curve"/>
      <point x="61" y="419"/>
      <point x="141" y="355"/>
      <point x="216" y="326" type="curve"/>
      <point x="108" y="279"/>
      <point x="50" y="226"/>
      <point x="50" y="155" type="curve"/>
      <point x="50" y="51"/>
      <point x="133" y="-10"/>
      <point x="262" y="-10" type="curve"/>
      <point x="375" y="-10"/>
      <point x="473" y="60"/>
    </contour>
    <contour>
      <point x="252" y="600" type="curve"/>
      <point x="345" y="600"/>
      <point x="392" y="558"/>
      <point x="392" y="495" type="curve"/>
      <point x="392" y="440"/>
      <point x="337" y="391"/>
      <point x="285" y="360" type="curve"/>
      <point x="214" y="396"/>
      <point x="125" y="444"/>
      <point x="125" y="520" type="curve"/>
      <point x="125" y="577"/>
      <point x="190" y="600"/>
    </contour>
    <contour>
      <point x="262" y="24" type="curve"/>
      <point x="179" y="24"/>
      <point x="120" y="77"/>
      <point x="120" y="155" type="curve"/>
      <point x="120" y="209"/>
      <point x="149" y="248"/>
      <point x="255" y="306" type="curve"/>
      <point x="348" y="250"/>
      <point x="403" y="216"/>
      <point x="403" y="135" type="curve"/>
      <point x="403" y="60"/>
      <point x="329" y="24"/>
    </contour>
  </outline>
</glyph>
<glyph name="nine" format="1">
  <advance width="471"/>
  <unicode hex="0039"/>
  <outline>
    <contour>
      <point x="238" y="420" type="curve"/>
      <point x="119" y="368"/>
      <point x="51" y="280"/>
      <point x="51" y="186" type="curve"/>
      <point x="51" y="89"/>
      <point x="114" y="1"/>
      <point x="216" y="-10" type="curve"/>
      <point x="354" y="121" type="line"/>
      <point x="354" y="-47"/>
      <point x="196" y="-218"/>
      <point x="76" y="-218" type="curve"/>
      <point x="45" y="-218"/>
      <point x="30" y="-229"/>
      <point x="30" y="-250" type="curve"/>
      <point x="30" y="-266"/>
      <point x="44" y="-280"/>
      <point x="67" y="-280" type="curve"/>
      <point x="166" y="-280"/>
      <point x="421" y="-49"/>
      <point x="421" y="162" type="curve"/>
      <point x="421" y="281"/>
      <point x="335" y="398"/>
    </contour>
    <contour>
      <point x="223" y="65" type="curve"/>
      <point x="155" y="65"/>
      <point x="116" y="137"/>
      <point x="116" y="216" type="curve"/>
      <point x="116" y="264"/>
      <point x="133" y="326"/>
      <point x="186" y="363" type="curve"/>
      <point x="255" y="353"/>
      <point x="353" y="278"/>
      <point x="353" y="156" type="curve"/>
      <point x="329" y="122"/>
      <point x="267" y="65"/>
    </contour>
  </outline>
</glyph>
<glyph name="question" format="1">
  <advance width="287"/>
  <unicode hex="003F"/>
  <outline>
    <contour>
      <point x="59" y="597" type="curve"/>
      <point x="30" y="710" type="line"/>
      <point x="186" y="710"/>
      <point x="277" y="632"/>
      <point x="277" y="522" type="curve"/>
      <point x="277" y="426"/>
      <point x="203" y="366"/>
      <point x="147" y="325" type="curve"/>
      <point x="146" y="277"/>
      <point x="150" y="245"/>
      <point x="157" y="197" type="curve"/>
      <point x="87" y="197" type="line"/>
      <point x="87" y="351" type="line"/>
      <point x="140" y="377"/>
      <point x="207" y="424"/>
      <point x="207" y="504" type="curve"/>
      <point x="207" y="582"/>
      <point x="137" y="606"/>
    </contour>
    <component base="period" xOffset="23"/>
  </outline>
</glyph>
<glyph name="A" format="1">
  <advance width="720"/>
  <unicode hex="0041"/>
  <outline>
    <contour>
      <point x="146" y="45" type="line"/>
      <point x="72" y="50" type="line"/>
      <point x="316" y="594" type="line"/>
      <point x="597" y="50" type="line"/>
      <point x="536" y="45" type="line"/>
      <point x="536" y="0" type="line"/>
      <point x="715" y="0" type="line"/>
      <point x="720" y="15" type="line"/>
      <point x="589" y="246"/>
      <point x="466" y="477"/>
      <point x="352" y="710" type="curve"/>
      <point x="327" y="710" type="line"/>
      <point x="0" y="15" type="line"/>
      <point x="5" y="0" type="line"/>
      <point x="146" y="0" type="line"/>
    </contour>
    <contour>
      <point x="154" y="300" type="line"/>
      <point x="485" y="300" type="line"/>
      <point x="485" y="345" type="line"/>
      <point x="154" y="345" type="line"/>
    </contour>
  </outline>
</glyph>
<glyph name="B" format="1">
  <advance width="627"/>
  <unicode hex="0042"/>
  <outline>
    <contour>
      <point x="40" y="700" type="line"/>
      <point x="125" y="700" type="line"/>
      <point x="185" y="700"/>
      <point x="214" y="705"/>
      <point x="302" y="705" type="curve"/>
      <point x="421" y="705"/>
      <point x="507" y="627"/>
      <point x="507" y="537" type="curve"/>
      <point x="507" y="464"/>
      <point x="447" y="416"/>
      <point x="400" y="395" type="curve"/>
      <point x="514" y="379"/>
      <point x="597" y="319"/>
      <point x="597" y="200" type="curve"/>
      <point x="597" y="95"/>
      <point x="511" y="0"/>
      <point x="303" y="0" type="curve"/>
      <point x="44" y="0" type="line"/>
      <point x="44" y="45" type="line"/>
      <point x="93" y="50" type="line"/>
      <point x="93" y="650" type="line"/>
      <point x="40" y="655" type="line"/>
    </contour>
    <contour>
      <point x="288" y="354" type="curve"/>
      <point x="178" y="354" type="line"/>
      <point x="178" y="50" type="line"/>
      <point x="319" y="50" type="line" smooth="yes"/>
      <point x="444" y="50"/>
      <point x="507" y="97"/>
      <point x="507" y="194" type="curve"/>
      <point x="507" y="311"/>
      <point x="425" y="354"/>
    </contour>
    <contour>
      <point x="178" y="654" type="curve"/>
      <point x="178" y="399" type="line"/>
      <point x="241" y="399" type="line" smooth="yes"/>
      <point x="358" y="399"/>
      <point x="417" y="447"/>
      <point x="417" y="530" type="curve"/>
      <point x="417" y="613"/>
      <point x="373" y="659"/>
      <point x="266" y="659" type="curve"/>
      <point x="237" y="659"/>
      <point x="207" y="658"/>
    </contour>
  </outline>
</glyph>
<glyph name="C" format="1">
  <advance width="656"/>
  <unicode hex="0043"/>
  <outline>
    <contour>
      <point x="557" y="612" type="curve"/>
      <point x="561" y="545" type="line"/>
      <point x="608" y="545" type="line"/>
      <point x="608" y="661" type="line"/>
      <point x="557" y="696"/>
      <point x="503" y="710"/>
      <point x="435" y="710" type="curve"/>
      <point x="225" y="710"/>
      <point x="50" y="565"/>
      <point x="50" y="355" type="curve"/>
      <point x="50" y="135"/>
      <point x="200" y="-10"/>
      <point x="420" y="-10" type="curve"/>
      <point x="492" y="-10"/>
      <point x="563" y="12"/>
      <point x="616" y="47" type="curve"/>
      <point x="615" y="86"/>
      <point x="617" y="124"/>
      <point x="619" y="163" type="curve"/>
      <point x="572" y="163" type="line"/>
      <point x="565" y="96" type="line"/>
      <point x="532" y="63"/>
      <point x="479" y="40"/>
      <point x="420" y="40" type="curve"/>
      <point x="260" y="40"/>
      <point x="145" y="175"/>
      <point x="145" y="355" type="curve"/>
      <point x="145" y="535"/>
      <point x="255" y="662"/>
      <point x="435" y="662" type="curve"/>
      <point x="478" y="662"/>
      <point x="536" y="652"/>
    </contour>
  </outline>
</glyph>
<glyph name="D" format="1">
  <advance width="765"/>
  <unicode hex="0044"/>
  <outline>
    <contour>
      <point x="316" y="704" type="curve"/>
      <point x="546" y="704"/>
      <point x="715" y="559"/>
      <point x="715" y="349" type="curve"/>
      <point x="715" y="124"/>
      <point x="547" y="-3"/>
      <point x="302" y="-3" type="curve"/>
      <point x="245" y="-3"/>
      <point x="147" y="-1"/>
      <point x="40" y="-1" type="curve"/>
      <point x="40" y="44" type="line"/>
      <point x="100" y="49" type="line"/>
      <point x="104" y="251"/>
      <point x="104" y="453"/>
      <point x="100" y="655" type="curve"/>
      <point x="45" y="660" type="line"/>
      <point x="45" y="705" type="line"/>
      <point x="77" y="702"/>
      <point x="125" y="700"/>
      <point x="166" y="700" type="curve"/>
      <point x="210" y="700"/>
      <point x="261" y="704"/>
    </contour>
    <contour>
      <point x="306" y="659" type="curve"/>
      <point x="190" y="659" type="line"/>
      <point x="186" y="455"/>
      <point x="186" y="251"/>
      <point x="190" y="47" type="curve"/>
      <point x="302" y="47" type="line" smooth="yes"/>
      <point x="515" y="47"/>
      <point x="620" y="169"/>
      <point x="620" y="349" type="curve"/>
      <point x="620" y="549"/>
      <point x="506" y="659"/>
    </contour>
  </outline>
</glyph>
<glyph name="E" format="1">
  <advance width="617"/>
  <unicode hex="0045"/>
  <outline>
    <contour>
      <point x="433" y="268" type="line"/>
      <point x="479" y="268" type="line"/>
      <point x="479" y="450" type="line"/>
      <point x="439" y="450" type="line"/>
      <point x="436" y="390" type="line"/>
      <point x="188" y="390" type="line"/>
      <point x="188" y="646" type="line"/>
      <point x="515" y="646" type="line"/>
      <point x="520" y="566" type="line"/>
      <point x="560" y="566" type="line"/>
      <point x="560" y="701" type="line"/>
      <point x="46" y="701" type="line"/>
      <point x="46" y="656" type="line"/>
      <point x="101" y="651" type="line"/>
      <point x="104" y="447"/>
      <point x="104" y="254"/>
      <point x="101" y="50" type="curve"/>
      <point x="40" y="45" type="line"/>
      <point x="40" y="0" type="line"/>
      <point x="587" y="0" type="line"/>
      <point x="587" y="134" type="line"/>
      <point x="547" y="134" type="line"/>
      <point x="543" y="65" type="line"/>
      <point x="188" y="65" type="line"/>
      <point x="188" y="335" type="line"/>
      <point x="434" y="335" type="line"/>
    </contour>
  </outline>
</glyph>
<glyph name="F" format="1">
  <advance width="564"/>
  <unicode hex="0046"/>
  <outline>
    <contour>
      <point x="95" y="650" type="curve"/>
      <point x="40" y="655" type="line"/>
      <point x="40" y="700" type="line"/>
      <point x="558" y="700" type="line"/>
      <point x="559" y="557" type="line"/>
      <point x="512" y="557" type="line"/>
      <point x="507" y="640" type="line"/>
      <point x="180" y="640" type="line"/>
      <point x="180" y="390" type="line"/>
      <point x="410" y="390" type="line"/>
      <point x="416" y="450" type="line"/>
      <point x="464" y="450" type="line"/>
      <point x="464" y="265" type="line"/>
      <point x="417" y="265" type="line"/>
      <point x="411" y="330" type="line"/>
      <point x="180" y="330" type="line"/>
      <point x="180" y="50" type="line"/>
      <point x="285" y="45" type="line"/>
      <point x="285" y="0" type="line"/>
      <point x="50" y="0" type="line"/>
      <point x="50" y="45" type="line"/>
      <point x="95" y="50" type="line"/>
      <point x="98" y="250"/>
      <point x="98" y="450"/>
    </contour>
  </outline>
</glyph>
<glyph name="G" format="1">
  <advance width="687"/>
  <unicode hex="0047"/>
  <outline>
    <contour>
      <point x="423" y="-10" type="curve"/>
      <point x="198" y="-10"/>
      <point x="50" y="140"/>
      <point x="50" y="350" type="curve"/>
      <point x="50" y="560"/>
      <point x="233" y="710"/>
      <point x="453" y="710" type="curve"/>
      <point x="538" y="710"/>
      <point x="590" y="691"/>
      <point x="629" y="669" type="curve"/>
      <point x="629" y="564" type="line"/>
      <point x="585" y="564" type="line"/>
      <point x="580" y="622" type="line"/>
      <point x="549" y="651"/>
      <point x="505" y="665"/>
      <point x="453" y="665" type="curve"/>
      <point x="273" y="665"/>
      <point x="145" y="530"/>
      <point x="145" y="350" type="curve"/>
      <point x="145" y="170"/>
      <point x="253" y="40"/>
      <point x="423" y="40" type="curve"/>
      <point x="472" y="40"/>
      <point x="530" y="53"/>
      <point x="552" y="69" type="curve"/>
      <point x="557" y="348" type="line"/>
      <point x="463" y="345" type="line"/>
      <point x="463" y="390" type="line"/>
      <point x="637" y="390" type="line"/>
      <point x="637" y="31" type="line"/>
      <point x="602" y="16"/>
      <point x="498" y="-10"/>
    </contour>
  </outline>
</glyph>
<glyph name="H" format="1">
  <advance width="781"/>
  <unicode hex="0048"/>
  <outline>
    <contour>
      <point x="701" y="700" type="curve"/>
      <point x="551" y="700" type="line"/>
      <point x="551" y="655" type="line"/>
      <point x="611" y="650" type="line"/>
      <point x="611" y="384" type="line"/>
      <point x="170" y="384" type="line"/>
      <point x="170" y="652" type="line"/>
      <point x="230" y="657" type="line"/>
      <point x="230" y="700" type="line"/>
      <point x="80" y="700" type="line"/>
      <point x="87" y="467"/>
      <point x="87" y="233"/>
      <point x="80" y="0" type="curve"/>
      <point x="240" y="0" type="line"/>
      <point x="240" y="45" type="line"/>
      <point x="170" y="50" type="line"/>
      <point x="170" y="334" type="line"/>
      <point x="611" y="334" type="line"/>
      <point x="611" y="50" type="line"/>
      <point x="541" y="45" type="line"/>
      <point x="541" y="0" type="line"/>
      <point x="701" y="0" type="line"/>
      <point x="694" y="233"/>
      <point x="694" y="467"/>
    </contour>
  </outline>
</glyph>
<glyph name="I" format="1">
  <advance width="320"/>
  <unicode hex="0049"/>
  <outline>
    <contour>
      <point x="280" y="0" type="line"/>
      <point x="280" y="45" type="line"/>
      <point x="195" y="50" type="line"/>
      <point x="192" y="250"/>
      <point x="192" y="450"/>
      <point x="195" y="650" type="curve"/>
      <point x="265" y="655" type="line"/>
      <point x="265" y="700" type="line"/>
      <point x="40" y="700" type="line"/>
      <point x="40" y="655" type="line"/>
      <point x="110" y="650" type="line"/>
      <point x="113" y="450"/>
      <point x="113" y="251"/>
      <point x="110" y="51" type="curve"/>
      <point x="40" y="45" type="line"/>
      <point x="40" y="0" type="line"/>
    </contour>
  </outline>
</glyph>
<glyph name="J" format="1">
  <advance width="292"/>
  <unicode hex="004A"/>
  <outline>
    <contour>
      <point x="275" y="655" type="line"/>
      <point x="275" y="700" type="line"/>
      <point x="48" y="700" type="line"/>
      <point x="48" y="655" type="line"/>
      <point x="120" y="649" type="line"/>
      <point x="124" y="474"/>
      <point x="129" y="238"/>
      <point x="125" y="33" type="curve"/>
      <point x="123" y="-92"/>
      <point x="60" y="-136"/>
      <point x="-70" y="-224" type="curve"/>
      <point x="-49" y="-261" type="line"/>
      <point x="124" y="-163"/>
      <point x="209" y="-122"/>
      <point x="208" y="42" type="curve"/>
      <point x="206" y="284"/>
      <point x="206" y="489"/>
      <point x="209" y="649" type="curve"/>
    </contour>
  </outline>
</glyph>
<glyph name="K" format="1">
  <advance width="703"/>
  <unicode hex="004B"/>
  <outline>
    <contour>
      <point x="232" y="316" type="line"/>
      <point x="508" y="552" type="line"/>
      <point x="428" y="557" type="line"/>
      <point x="428" y="602" type="line"/>
      <point x="659" y="602" type="line"/>
      <point x="659" y="557" type="line"/>
      <point x="620" y="554" type="line" smooth="yes"/>
      <point x="605" y="553"/>
      <point x="594" y="544"/>
      <point x="579" y="531" type="curve"/>
      <point x="340" y="326" type="line"/>
      <point x="437" y="259"/>
      <point x="536" y="177"/>
      <point x="637" y="78" type="curve"/>
      <point x="678" y="108" type="line"/>
      <point x="703" y="81" type="line"/>
      <point x="670" y="53"/>
      <point x="637" y="22"/>
      <point x="602" y="-10" type="curve"/>
      <point x="598" y="-9" type="line"/>
      <point x="488" y="114"/>
      <point x="363" y="220"/>
      <point x="234" y="302" type="curve"/>
      <point x="231" y="300" type="line"/>
      <point x="231" y="50" type="line"/>
      <point x="333" y="45" type="line"/>
      <point x="333" y="0" type="line"/>
      <point x="43" y="0" type="line"/>
      <point x="43" y="45" type="line"/>
      <point x="151" y="50" type="line"/>
      <point x="151" y="262" type="line"/>
      <point x="64" y="230" type="line"/>
      <point x="54" y="262" type="line"/>
      <point x="151" y="298" type="line"/>
      <point x="151" y="670" type="line"/>
      <point x="45" y="620" type="line"/>
      <point x="30" y="651" type="line"/>
      <point x="95" y="685"/>
      <point x="156" y="722"/>
      <point x="220" y="760" type="curve"/>
      <point x="235" y="753" type="line"/>
      <point x="231" y="624"/>
      <point x="231" y="446"/>
      <point x="231" y="317" type="curve"/>
    </contour>
  </outline>
</glyph>
<glyph name="L" format="1">
  <advance width="625"/>
  <unicode hex="004C"/>
  <outline>
    <contour>
      <point x="625" y="116" type="curve"/>
      <point x="592" y="128" type="line"/>
      <point x="571" y="84" type="line" smooth="yes"/>
      <point x="563" y="67"/>
      <point x="555" y="65"/>
      <point x="531" y="65" type="curve"/>
      <point x="173" y="65" type="line"/>
      <point x="170" y="262"/>
      <point x="170" y="455"/>
      <point x="173" y="652" type="curve"/>
      <point x="270" y="655" type="line"/>
      <point x="270" y="700" type="line"/>
      <point x="40" y="700" type="line"/>
      <point x="40" y="655" type="line"/>
      <point x="88" y="652" type="line"/>
      <point x="91" y="450"/>
      <point x="91" y="253"/>
      <point x="88" y="51" type="curve"/>
      <point x="44" y="45" type="line"/>
      <point x="44" y="0" type="line"/>
      <point x="592" y="0" type="line"/>
      <point x="601" y="39"/>
      <point x="611" y="77"/>
    </contour>
  </outline>
</glyph>
<glyph name="M" format="1">
  <advance width="908"/>
  <unicode hex="004D"/>
  <outline>
    <contour>
      <point x="868" y="700" type="line"/>
      <point x="868" y="655" type="line"/>
      <point x="826" y="652" type="line"/>
      <point x="826" y="49" type="line"/>
      <point x="867" y="45" type="line"/>
      <point x="867" y="0" type="line"/>
      <point x="688" y="0" type="line"/>
      <point x="688" y="45" type="line"/>
      <point x="736" y="49" type="line"/>
      <point x="736" y="538" type="line"/>
      <point x="464" y="-6" type="line"/>
      <point x="453" y="-10" type="line"/>
      <point x="149" y="570" type="line"/>
      <point x="149" y="48" type="line"/>
      <point x="206" y="45" type="line"/>
      <point x="206" y="0" type="line"/>
      <point x="40" y="0" type="line"/>
      <point x="40" y="45" type="line"/>
      <point x="99" y="48" type="line"/>
      <point x="99" y="652" type="line"/>
      <point x="40" y="655" type="line"/>
      <point x="40" y="700" type="line"/>
      <point x="255" y="700" type="line"/>
      <point x="255" y="655" type="line"/>
      <point x="202" y="652" type="line"/>
      <point x="293" y="490"/>
      <point x="393" y="293"/>
      <point x="476" y="127" type="curve"/>
      <point x="750" y="652" type="line"/>
      <point x="685" y="655" type="line"/>
      <point x="685" y="700" type="line"/>
    </contour>
  </outline>
</glyph>
<glyph name="N" format="1">
  <advance width="792"/>
  <unicode hex="004E"/>
  <outline>
    <contour>
      <point x="45" y="700" type="line"/>
      <point x="289" y="700" type="line"/>
      <point x="289" y="655" type="line"/>
      <point x="243" y="651" type="line"/>
      <point x="386" y="490"/>
      <point x="512" y="338"/>
      <point x="637" y="168" type="curve"/>
      <point x="637" y="650" type="line"/>
      <point x="577" y="655" type="line"/>
      <point x="577" y="700" type="line"/>
      <point x="752" y="700" type="line"/>
      <point x="752" y="655" type="line"/>
      <point x="697" y="650" type="line"/>
      <point x="697" y="0" type="line"/>
      <point x="656" y="0" type="line"/>
      <point x="497" y="214"/>
      <point x="340" y="416"/>
      <point x="160" y="621" type="curve"/>
      <point x="160" y="50" type="line"/>
      <point x="220" y="45" type="line"/>
      <point x="220" y="0" type="line"/>
      <point x="40" y="0" type="line"/>
      <point x="40" y="45" type="line"/>
      <point x="100" y="50" type="line"/>
      <point x="100" y="650" type="line"/>
      <point x="45" y="655" type="line"/>
    </contour>
  </outline>
</glyph>
<glyph name="O" format="1">
  <advance width="852"/>
  <unicode hex="004F"/>
  <outline>
    <contour>
      <point x="50" y="349" type="curve"/>
      <point x="50" y="587"/>
      <point x="258" y="709"/>
      <point x="426" y="709" type="curve"/>
      <point x="594" y="709"/>
      <point x="802" y="587"/>
      <point x="802" y="349" type="curve"/>
      <point x="802" y="111"/>
      <point x="594" y="-11"/>
      <point x="426" y="-11" type="curve"/>
      <point x="258" y="-11"/>
      <point x="50" y="111"/>
    </contour>
    <contour>
      <point x="145" y="349" type="curve"/>
      <point x="145" y="174"/>
      <point x="260" y="39"/>
      <point x="426" y="39" type="curve"/>
      <point x="592" y="39"/>
      <point x="707" y="174"/>
      <point x="707" y="349" type="curve"/>
      <point x="707" y="523"/>
      <point x="592" y="664"/>
      <point x="426" y="664" type="curve"/>
      <point x="260" y="664"/>
      <point x="145" y="523"/>
    </contour>
  </outline>
</glyph>
<glyph name="P" format="1">
  <advance width="576"/>
  <unicode hex="0050"/>
  <outline>
    <contour>
      <point x="100" y="632" type="curve"/>
      <point x="56" y="635" type="line"/>
      <point x="56" y="679" type="line"/>
      <point x="66" y="679" type="line" smooth="yes"/>
      <point x="164" y="679"/>
      <point x="215" y="706"/>
      <point x="294" y="706" type="curve"/>
      <point x="414" y="706"/>
      <point x="546" y="572"/>
      <point x="546" y="432" type="curve"/>
      <point x="546" y="304"/>
      <point x="455" y="218"/>
      <point x="326" y="218" type="curve"/>
      <point x="274" y="218"/>
      <point x="215" y="231"/>
      <point x="183" y="243" type="curve"/>
      <point x="183" y="49" type="line"/>
      <point x="265" y="45" type="line"/>
      <point x="265" y="0" type="line"/>
      <point x="40" y="0" type="line"/>
      <point x="40" y="45" type="line"/>
      <point x="100" y="49" type="line"/>
      <point x="103" y="250"/>
      <point x="103" y="431"/>
    </contour>
    <contour>
      <point x="325" y="631" type="curve"/>
      <point x="271" y="631"/>
      <point x="237" y="628"/>
      <point x="183" y="622" type="curve"/>
      <point x="183" y="279" type="line"/>
      <point x="212" y="269"/>
      <point x="247" y="263"/>
      <point x="296" y="263" type="curve"/>
      <point x="406" y="263"/>
      <point x="480" y="342"/>
      <point x="480" y="462" type="curve"/>
      <point x="480" y="582"/>
      <point x="395" y="631"/>
    </contour>
  </outline>
</glyph>
<glyph name="Q" format="1">
  <advance width="898"/>
  <unicode hex="0051"/>
  <outline>
    <contour>
      <point x="490" y="-7" type="curve"/>
      <point x="542" y="28" type="line"/>
      <point x="732" y="7" type="line"/>
      <point x="816" y="-32"/>
      <point x="921" y="-118"/>
      <point x="1004" y="-118" type="curve"/>
      <point x="1043" y="-118"/>
      <point x="1091" y="-111"/>
      <point x="1156" y="-83" type="curve"/>
      <point x="1168" y="-110" type="line"/>
      <point x="1108" y="-143"/>
      <point x="1038" y="-159"/>
      <point x="977" y="-159" type="curve"/>
      <point x="774" y="-159"/>
      <point x="676" y="-7"/>
    </contour>
    <contour>
      <point x="50" y="349" type="curve"/>
      <point x="50" y="587"/>
      <point x="266" y="709"/>
      <point x="444" y="709" type="curve"/>
      <point x="622" y="709"/>
      <point x="832" y="587"/>
      <point x="832" y="349" type="curve"/>
      <point x="832" y="131"/>
      <point x="614" y="-11"/>
      <point x="446" y="-11" type="curve"/>
      <point x="268" y="-11"/>
      <point x="50" y="111"/>
    </contour>
    <contour>
      <point x="145" y="349" type="curve"/>
      <point x="145" y="174"/>
      <point x="270" y="39"/>
      <point x="446" y="39" type="curve"/>
      <point x="622" y="39"/>
      <point x="737" y="154"/>
      <point x="737" y="349" type="curve"/>
      <point x="737" y="523"/>
      <point x="620" y="664"/>
      <point x="444" y="664" type="curve"/>
      <point x="268" y="664"/>
      <point x="145" y="523"/>
    </contour>
  </outline>
</glyph>
<glyph name="R" format="1">
  <advance width="599"/>
  <unicode hex="0052"/>
  <outline>
    <contour>
      <point x="40" y="655" type="line"/>
      <point x="40" y="700" type="line"/>
      <point x="274" y="700" type="line" smooth="yes"/>
      <point x="434" y="700"/>
      <point x="540" y="628"/>
      <point x="540" y="508" type="curve"/>
      <point x="540" y="383"/>
      <point x="406" y="324"/>
      <point x="323" y="317" type="curve"/>
      <point x="470" y="112" type="line" smooth="yes"/>
      <point x="512" y="54"/>
      <point x="534" y="49"/>
      <point x="589" y="42" type="curve"/>
      <point x="589" y="0" type="line"/>
      <point x="539" y="0"/>
      <point x="492" y="0"/>
      <point x="442" y="-2" type="curve"/>
      <point x="388" y="91"/>
      <point x="273" y="267"/>
      <point x="238" y="311" type="curve"/>
      <point x="195" y="311" type="line"/>
      <point x="195" y="50" type="line"/>
      <point x="244" y="45" type="line"/>
      <point x="244" y="0" type="line"/>
      <point x="40" y="0" type="line"/>
      <point x="40" y="45" type="line"/>
      <point x="110" y="51" type="line"/>
      <point x="113" y="252"/>
      <point x="113" y="449"/>
      <point x="110" y="650" type="curve"/>
    </contour>
    <contour>
      <point x="262" y="655" type="curve"/>
      <point x="195" y="655" type="line"/>
      <point x="195" y="356" type="line"/>
      <point x="258" y="356" type="line" smooth="yes"/>
      <point x="376" y="356"/>
      <point x="445" y="396"/>
      <point x="445" y="508" type="curve"/>
      <point x="445" y="618"/>
      <point x="365" y="655"/>
    </contour>
  </outline>
</glyph>
<glyph name="S" format="1">
  <advance width="556"/>
  <unicode hex="0053"/>
  <outline>
    <contour>
      <point x="26" y="82" type="curve"/>
      <point x="79" y="193" type="line"/>
      <point x="97" y="188" type="line"/>
      <point x="96" y="91"/>
      <point x="209" y="41"/>
      <point x="292" y="41" type="curve"/>
      <point x="392" y="41"/>
      <point x="465" y="82"/>
      <point x="465" y="162" type="curve"/>
      <point x="465" y="241"/>
      <point x="388" y="280"/>
      <point x="274" y="321" type="curve"/>
      <point x="100" y="384"/>
      <point x="20" y="429"/>
      <point x="20" y="530" type="curve"/>
      <point x="20" y="640"/>
      <point x="136" y="710"/>
      <point x="279" y="710" type="curve"/>
      <point x="376" y="710"/>
      <point x="459" y="679"/>
      <point x="501" y="636" type="curve"/>
      <point x="488" y="600"/>
      <point x="476" y="560"/>
      <point x="463" y="514" type="curve"/>
      <point x="438" y="522" type="line"/>
      <point x="436" y="599"/>
      <point x="348" y="665"/>
      <point x="250" y="665" type="curve"/>
      <point x="138" y="665"/>
      <point x="90" y="618"/>
      <point x="90" y="558" type="curve"/>
      <point x="90" y="485"/>
      <point x="218" y="440"/>
      <point x="311" y="401" type="curve"/>
      <point x="421" y="355"/>
      <point x="526" y="330"/>
      <point x="526" y="193" type="curve"/>
      <point x="526" y="86"/>
      <point x="438" y="-9"/>
      <point x="272" y="-9" type="curve"/>
      <point x="150" y="-9"/>
      <point x="70" y="34"/>
    </contour>
  </outline>
</glyph>
<glyph name="T" format="1">
  <advance width="669"/>
  <unicode hex="0054"/>
  <outline>
    <contour>
      <point x="284" y="47" type="curve"/>
      <point x="212" y="42" type="line"/>
      <point x="212" y="2" type="line"/>
      <point x="447" y="2" type="line"/>
      <point x="447" y="42" type="line"/>
      <point x="374" y="47" type="line"/>
      <point x="371" y="243"/>
      <point x="371" y="439"/>
      <point x="374" y="635" type="curve"/>
      <point x="606" y="635" type="line"/>
      <point x="611" y="575" type="line"/>
      <point x="659" y="575" type="line"/>
      <point x="659" y="700" type="line"/>
      <point x="10" y="700" type="line"/>
      <point x="10" y="575" type="line"/>
      <point x="58" y="575" type="line"/>
      <point x="63" y="635" type="line"/>
      <point x="284" y="635" type="line"/>
      <point x="287" y="439"/>
      <point x="287" y="243"/>
    </contour>
  </outline>
</glyph>
<glyph name="U" format="1">
  <advance width="738"/>
  <unicode hex="0055"/>
  <outline>
    <contour>
      <point x="563" y="-18" type="line"/>
      <point x="718" y="27" type="line"/>
      <point x="708" y="71" type="line"/>
      <point x="637" y="58" type="line"/>
      <point x="644" y="700" type="line"/>
      <point x="509" y="700" type="line"/>
      <point x="509" y="655" type="line"/>
      <point x="554" y="650" type="line"/>
      <point x="554" y="134" type="line"/>
      <point x="520" y="99"/>
      <point x="457" y="44"/>
      <point x="365" y="44" type="curve"/>
      <point x="225" y="44"/>
      <point x="190" y="131"/>
      <point x="190" y="261" type="curve"/>
      <point x="190" y="700" type="line"/>
      <point x="40" y="700" type="line"/>
      <point x="40" y="655" type="line"/>
      <point x="100" y="650" type="line"/>
      <point x="100" y="241" type="line" smooth="yes"/>
      <point x="100" y="51"/>
      <point x="185" y="-10"/>
      <point x="335" y="-10" type="curve"/>
      <point x="435" y="-10"/>
      <point x="515" y="45"/>
      <point x="554" y="77" type="curve"/>
      <point x="554" y="-10" type="line"/>
    </contour>
  </outline>
</glyph>
<glyph name="V" format="1">
  <advance width="695"/>
  <unicode hex="0056"/>
  <outline>
    <contour>
      <point x="519" y="655" type="line"/>
      <point x="590" y="651" type="line"/>
      <point x="339" y="128" type="line"/>
      <point x="115" y="652" type="line"/>
      <point x="160" y="655" type="line"/>
      <point x="160" y="700" type="line"/>
      <point x="0" y="700" type="line"/>
      <point x="0" y="655" type="line"/>
      <point x="45" y="652" type="line"/>
      <point x="334" y="-10" type="line"/>
      <point x="358" y="-10" type="line"/>
      <point x="467" y="221"/>
      <point x="578" y="453"/>
      <point x="695" y="684" type="curve"/>
      <point x="690" y="700" type="line"/>
      <point x="519" y="700" type="line"/>
    </contour>
  </outline>
</glyph>
<glyph name="W" format="1">
  <advance width="1017"/>
  <unicode hex="0057"/>
  <outline>
    <contour>
      <point x="830" y="654" type="line"/>
      <point x="909" y="651" type="line"/>
      <point x="669" y="126" type="line"/>
      <point x="554" y="400" type="line"/>
      <point x="595" y="495"/>
      <point x="639" y="590"/>
      <point x="689" y="685" type="curve"/>
      <point x="685" y="700" type="line"/>
      <point x="542" y="700" type="line"/>
      <point x="542" y="657" type="line"/>
      <point x="587" y="654" type="line"/>
      <point x="517" y="482" type="line"/>
      <point x="445" y="654" type="line"/>
      <point x="485" y="657" type="line"/>
      <point x="485" y="700" type="line"/>
      <point x="323" y="700" type="line"/>
      <point x="323" y="657" type="line"/>
      <point x="375" y="654" type="line"/>
      <point x="482" y="422" type="line"/>
      <point x="354" y="124" type="line"/>
      <point x="134" y="652" type="line"/>
      <point x="184" y="655" type="line"/>
      <point x="184" y="700" type="line"/>
      <point x="0" y="700" type="line"/>
      <point x="0" y="655" type="line"/>
      <point x="64" y="652" type="line"/>
      <point x="295" y="122" type="line" smooth="yes"/>
      <point x="306" y="97"/>
      <point x="333" y="41"/>
      <point x="350" y="-10" type="curve"/>
      <point x="378" y="-10" type="line"/>
      <point x="521" y="339" type="line"/>
      <point x="620" y="123" type="line" smooth="yes"/>
      <point x="634" y="93"/>
      <point x="659" y="26"/>
      <point x="669" y="-10" type="curve"/>
      <point x="694" y="-10" type="line"/>
      <point x="922" y="505" type="line" smooth="yes"/>
      <point x="949" y="565"/>
      <point x="996" y="669"/>
      <point x="1017" y="677" type="curve"/>
      <point x="1014" y="700" type="line"/>
      <point x="830" y="700" type="line"/>
    </contour>
  </outline>
</glyph>
<glyph name="X" format="1">
  <advance width="711"/>
  <unicode hex="0058"/>
  <outline>
    <contour>
      <point x="20" y="652" type="line"/>
      <point x="20" y="700" type="line"/>
      <point x="251" y="700" type="line"/>
      <point x="251" y="652" type="line"/>
      <point x="202" y="652" type="line"/>
      <point x="368" y="408" type="line"/>
      <point x="544" y="652" type="line"/>
      <point x="495" y="652" type="line"/>
      <point x="495" y="700" type="line"/>
      <point x="691" y="700" type="line"/>
      <point x="691" y="652" type="line"/>
      <point x="646" y="653" type="line" smooth="yes"/>
      <point x="613" y="654"/>
      <point x="599" y="634"/>
      <point x="570" y="594" type="curve"/>
      <point x="401" y="368" type="line"/>
      <point x="585" y="101" type="line" smooth="yes"/>
      <point x="607" y="69"/>
      <point x="631" y="46"/>
      <point x="639" y="46" type="curve"/>
      <point x="686" y="47" type="line"/>
      <point x="686" y="0" type="line"/>
      <point x="463" y="0" type="line"/>
      <point x="463" y="47" type="line"/>
      <point x="511" y="46" type="line"/>
      <point x="340" y="301" type="line"/>
      <point x="153" y="47" type="line"/>
      <point x="202" y="47" type="line"/>
      <point x="202" y="0" type="line"/>
      <point x="22" y="0" type="line"/>
      <point x="22" y="47" type="line"/>
      <point x="53" y="46" type="line" smooth="yes"/>
      <point x="76" y="46"/>
      <point x="114" y="91"/>
      <point x="122" y="101" type="curve"/>
      <point x="311" y="348" type="line"/>
      <point x="138" y="597" type="line" smooth="yes"/>
      <point x="121" y="621"/>
      <point x="96" y="654"/>
      <point x="63" y="653" type="curve"/>
    </contour>
  </outline>
</glyph>
<glyph name="Y" format="1">
  <advance width="605"/>
  <unicode hex="0059"/>
  <outline>
    <contour>
      <point x="178" y="45" type="line"/>
      <point x="178" y="0" type="line"/>
      <point x="403" y="0" type="line"/>
      <point x="403" y="45" type="line"/>
      <point x="338" y="50" type="line"/>
      <point x="335" y="319" type="line"/>
      <point x="528" y="650" type="line"/>
      <point x="605" y="655" type="line"/>
      <point x="605" y="700" type="line"/>
      <point x="490" y="700" type="line"/>
      <point x="315" y="370" type="line"/>
      <point x="140" y="700" type="line"/>
      <point x="0" y="700" type="line"/>
      <point x="0" y="655" type="line"/>
      <point x="60" y="650" type="line"/>
      <point x="251" y="323" type="line"/>
      <point x="248" y="50" type="line"/>
    </contour>
  </outline>
</glyph>
<glyph name="Z" format="1">
  <advance width="724"/>
  <unicode hex="005A"/>
  <outline>
    <contour>
      <point x="34" y="597" type="curve"/>
      <point x="57" y="565" type="line"/>
      <point x="57" y="565" type="line"/>
      <point x="107" y="599"/>
      <point x="157" y="634"/>
      <point x="179" y="637" type="curve"/>
      <point x="296" y="637"/>
      <point x="398" y="551"/>
      <point x="529" y="551" type="curve"/>
      <point x="25" y="38" type="line"/>
      <point x="57" y="0" type="line" smooth="yes"/>
      <point x="57" y="0"/>
      <point x="126" y="81"/>
      <point x="214" y="81" type="curve"/>
      <point x="338" y="81"/>
      <point x="434" y="-23"/>
      <point x="543" y="-23" type="curve"/>
      <point x="628" y="-23"/>
      <point x="699" y="135"/>
      <point x="699" y="135" type="curve"/>
      <point x="682" y="150" type="line" smooth="yes"/>
      <point x="656" y="114"/>
      <point x="624" y="73"/>
      <point x="562" y="73" type="curve"/>
      <point x="447" y="73"/>
      <point x="403" y="159"/>
      <point x="218" y="159" type="curve"/>
      <point x="720" y="683" type="line"/>
      <point x="680" y="709" type="line" smooth="yes"/>
      <point x="680" y="709"/>
      <point x="613" y="628"/>
      <point x="518" y="628" type="curve"/>
      <point x="423" y="628"/>
      <point x="327" y="713"/>
      <point x="214" y="713" type="curve"/>
      <point x="160" y="713"/>
      <point x="34" y="597"/>
    </contour>
  </outline>
</glyph>
<glyph name="a" format="1">
  <advance width="383"/>
  <unicode hex="0061"/>
  <outline>
    <contour>
      <point x="44" y="340" type="curve"/>
      <point x="31" y="366" type="line"/>
      <point x="63" y="387"/>
      <point x="175" y="460"/>
      <point x="214" y="460" type="curve"/>
      <point x="274" y="460"/>
      <point x="311" y="414"/>
      <point x="309" y="359" type="curve"/>
      <point x="307" y="309"/>
      <point x="307" y="177"/>
      <point x="307" y="115" type="curve"/>
      <point x="307" y="77"/>
      <point x="316" y="65"/>
      <point x="337" y="65" type="curve"/>
      <point x="344" y="65"/>
      <point x="367" y="68"/>
      <point x="377" y="71" type="curve"/>
      <point x="381" y="65" type="line"/>
      <point x="369" y="38"/>
      <point x="341" y="4"/>
      <point x="309" y="-10" type="curve"/>
      <point x="267" y="-10"/>
      <point x="234" y="23"/>
      <point x="227" y="84" type="curve"/>
      <point x="188" y="41"/>
      <point x="138" y="0"/>
      <point x="115" y="-10" type="curve"/>
      <point x="59" y="16"/>
      <point x="30" y="51"/>
      <point x="30" y="101" type="curve"/>
      <point x="30" y="165"/>
      <point x="75" y="203"/>
      <point x="227" y="276" type="curve"/>
      <point x="227" y="327" type="line" smooth="yes"/>
      <point x="227" y="367"/>
      <point x="222" y="392"/>
      <point x="185" y="392" type="curve"/>
      <point x="147" y="392"/>
      <point x="98" y="371"/>
    </contour>
    <contour>
      <point x="90" y="118" type="curve"/>
      <point x="90" y="92"/>
      <point x="109" y="65"/>
      <point x="134" y="65" type="curve"/>
      <point x="163" y="65"/>
      <point x="212" y="111"/>
      <point x="227" y="128" type="curve"/>
      <point x="227" y="245" type="line"/>
      <point x="126" y="199"/>
      <point x="90" y="155"/>
    </contour>
  </outline>
</glyph>
<glyph name="b" format="1">
  <advance width="445"/>
  <unicode hex="0062"/>
  <outline>
    <contour>
      <point x="201" y="-10" type="curve"/>
      <point x="162" y="-10"/>
      <point x="57" y="52"/>
      <point x="57" y="156" type="curve"/>
      <point x="57" y="660" type="line"/>
      <point x="16" y="635" type="line"/>
      <point x="0" y="670" type="line"/>
      <point x="36" y="689"/>
      <point x="82" y="715"/>
      <point x="134" y="748" type="curve"/>
      <point x="145" y="740" type="line"/>
      <point x="140" y="699"/>
      <point x="137" y="658"/>
      <point x="137" y="587" type="curve"/>
      <point x="137" y="390" type="line"/>
      <point x="275" y="460" type="line"/>
      <point x="348" y="448"/>
      <point x="425" y="380"/>
      <point x="425" y="272" type="curve"/>
      <point x="425" y="117"/>
      <point x="278" y="13"/>
    </contour>
    <contour>
      <point x="137" y="364" type="curve"/>
      <point x="137" y="196" type="line" smooth="yes"/>
      <point x="137" y="123"/>
      <point x="186" y="65"/>
      <point x="235" y="65" type="curve"/>
      <point x="289" y="65"/>
      <point x="350" y="145"/>
      <point x="350" y="232" type="curve"/>
      <point x="350" y="325"/>
      <point x="287" y="390"/>
      <point x="228" y="390" type="curve"/>
      <point x="192" y="390"/>
      <point x="160" y="376"/>
    </contour>
  </outline>
</glyph>
<glyph name="c" format="1">
  <advance width="364"/>
  <unicode hex="0063"/>
  <outline>
    <contour>
      <point x="245" y="78" type="curve"/>
      <point x="265" y="78"/>
      <point x="308" y="88"/>
      <point x="338" y="107" type="curve"/>
      <point x="354" y="83" type="line"/>
      <point x="310" y="41"/>
      <point x="280" y="18"/>
      <point x="235" y="-10" type="curve"/>
      <point x="103" y="1"/>
      <point x="40" y="74"/>
      <point x="40" y="211" type="curve"/>
      <point x="40" y="273"/>
      <point x="50" y="360"/>
      <point x="76" y="390" type="curve"/>
      <point x="91" y="407"/>
      <point x="174" y="460"/>
      <point x="201" y="460" type="curve"/>
      <point x="229" y="460"/>
      <point x="299" y="433"/>
      <point x="343" y="403" type="curve"/>
      <point x="343" y="400" type="line"/>
      <point x="278" y="355" type="line"/>
      <point x="241" y="375"/>
      <point x="176" y="400"/>
      <point x="158" y="400" type="curve"/>
      <point x="126" y="400"/>
      <point x="110" y="310"/>
      <point x="110" y="261" type="curve"/>
      <point x="110" y="140"/>
      <point x="165" y="78"/>
    </contour>
  </outline>
</glyph>
<glyph name="d" format="1">
  <advance width="515"/>
  <unicode hex="0064"/>
  <outline>
    <contour>
      <point x="419" y="710" type="curve"/>
      <point x="429" y="700" type="line"/>
      <point x="421" y="484"/>
      <point x="419" y="211"/>
      <point x="424" y="65" type="curve"/>
      <point x="482" y="75" type="line"/>
      <point x="490" y="42" type="line"/>
      <point x="442" y="27"/>
      <point x="394" y="9"/>
      <point x="348" y="-10" type="curve"/>
      <point x="342" y="-5" type="line"/>
      <point x="342" y="79" type="line"/>
      <point x="215" y="-10" type="line"/>
      <point x="105" y="-10"/>
      <point x="40" y="82"/>
      <point x="40" y="192" type="curve"/>
      <point x="40" y="327"/>
      <point x="138" y="430"/>
      <point x="273" y="430" type="curve"/>
      <point x="296" y="430"/>
      <point x="321" y="427"/>
      <point x="344" y="421" type="curve"/>
      <point x="344" y="622" type="line"/>
      <point x="281" y="608" type="line"/>
      <point x="269" y="640" type="line"/>
      <point x="323" y="662"/>
      <point x="373" y="686"/>
    </contour>
    <contour>
      <point x="345" y="122" type="curve"/>
      <point x="345" y="314" type="line"/>
      <point x="323" y="359"/>
      <point x="284" y="390"/>
      <point x="240" y="390" type="curve"/>
      <point x="168" y="390"/>
      <point x="100" y="326"/>
      <point x="100" y="233" type="curve"/>
      <point x="100" y="143"/>
      <point x="155" y="65"/>
      <point x="240" y="65" type="curve"/>
      <point x="277" y="65"/>
      <point x="324" y="96"/>
    </contour>
  </outline>
</glyph>
<glyph name="e" format="1">
  <advance width="350"/>
  <unicode hex="0065"/>
  <outline>
    <contour>
      <point x="100" y="256" type="curve"/>
      <point x="100" y="319"/>
      <point x="140" y="390"/>
      <point x="167" y="390" type="curve"/>
      <point x="183" y="390"/>
      <point x="221" y="349"/>
      <point x="241" y="311" type="curve"/>
      <point x="101" y="203" type="line"/>
      <point x="111" y="177" type="line"/>
      <point x="325" y="318" type="line"/>
      <point x="327" y="326" type="line"/>
      <point x="303" y="393"/>
      <point x="246" y="443"/>
      <point x="195" y="461" type="curve"/>
      <point x="108" y="409"/>
      <point x="40" y="331"/>
      <point x="40" y="208" type="curve"/>
      <point x="40" y="117"/>
      <point x="85" y="-7"/>
      <point x="245" y="-10" type="curve"/>
      <point x="337" y="93" type="line"/>
      <point x="318" y="111" type="line"/>
      <point x="298" y="93"/>
      <point x="269" y="75"/>
      <point x="241" y="75" type="curve"/>
      <point x="147" y="75"/>
      <point x="100" y="156"/>
    </contour>
  </outline>
</glyph>
<glyph name="f" format="1">
  <advance width="303"/>
  <unicode hex="0066"/>
  <outline>
    <contour>
      <point x="393" y="646" type="curve"/>
      <point x="393" y="624"/>
      <point x="376" y="618"/>
      <point x="362" y="618" type="curve"/>
      <point x="332" y="618"/>
      <point x="322" y="651"/>
      <point x="272" y="651" type="curve"/>
      <point x="198" y="651"/>
      <point x="134" y="588"/>
      <point x="134" y="475" type="curve"/>
      <point x="134" y="430" type="line"/>
      <point x="295" y="430" type="line"/>
      <point x="295" y="390" type="line"/>
      <point x="139" y="390" type="line"/>
      <point x="139" y="41" type="line"/>
      <point x="203" y="53" type="line"/>
      <point x="209" y="15" type="line"/>
      <point x="161" y="8"/>
      <point x="111" y="-1"/>
      <point x="57" y="-10" type="curve"/>
      <point x="54" y="-5" type="line"/>
      <point x="63" y="185"/>
      <point x="64" y="229"/>
      <point x="64" y="440" type="curve"/>
      <point x="24" y="440" type="line"/>
      <point x="20" y="450" type="line"/>
      <point x="62" y="539"/>
      <point x="150" y="693"/>
      <point x="302" y="693" type="curve"/>
      <point x="346" y="693"/>
      <point x="393" y="672"/>
    </contour>
  </outline>
</glyph>
<glyph name="g" format="1">
  <advance width="467"/>
  <unicode hex="0067"/>
  <outline>
    <contour>
      <point x="197" y="112" type="curve"/>
      <point x="287" y="112"/>
      <point x="387" y="211"/>
      <point x="388" y="251" type="curve"/>
      <point x="389" y="298"/>
      <point x="382" y="338"/>
      <point x="364" y="367" type="curve"/>
      <point x="337" y="412"/>
      <point x="284" y="454"/>
      <point x="209" y="460" type="curve"/>
      <point x="164" y="440"/>
      <point x="94" y="393"/>
      <point x="91" y="390" type="curve"/>
      <point x="54" y="357"/>
      <point x="30" y="316"/>
      <point x="30" y="262" type="curve"/>
      <point x="30" y="172"/>
      <point x="107" y="112"/>
    </contour>
    <contour>
      <point x="226" y="0" type="curve"/>
      <point x="290" y="-21"/>
      <point x="377" y="-71"/>
      <point x="377" y="-147" type="curve"/>
      <point x="377" y="-207"/>
      <point x="319" y="-245"/>
      <point x="239" y="-245" type="curve"/>
      <point x="149" y="-245"/>
      <point x="91" y="-198"/>
      <point x="91" y="-128" type="curve"/>
      <point x="91" y="-50"/>
      <point x="156" y="-10"/>
    </contour>
    <contour>
      <point x="179" y="391" type="curve"/>
      <point x="259" y="391"/>
      <point x="318" y="321"/>
      <point x="318" y="241" type="curve"/>
      <point x="318" y="191"/>
      <point x="287" y="152"/>
      <point x="237" y="152" type="curve"/>
      <point x="157" y="152"/>
      <point x="100" y="222"/>
      <point x="100" y="302" type="curve"/>
      <point x="100" y="340"/>
      <point x="115" y="391"/>
    </contour>
    <contour>
      <point x="241" y="126" type="curve"/>
      <point x="173" y="126" type="line"/>
      <point x="166" y="107"/>
      <point x="165" y="94"/>
      <point x="165" y="80" type="curve"/>
      <point x="165" y="54"/>
      <point x="175" y="41"/>
      <point x="194" y="25" type="curve"/>
      <point x="73" y="-6"/>
      <point x="10" y="-55"/>
      <point x="10" y="-136" type="curve"/>
      <point x="10" y="-228"/>
      <point x="99" y="-280"/>
      <point x="219" y="-280" type="curve"/>
      <point x="339" y="-280"/>
      <point x="457" y="-227"/>
      <point x="457" y="-117" type="curve"/>
      <point x="457" y="20"/>
      <point x="235" y="43"/>
      <point x="235" y="110" type="curve"/>
      <point x="235" y="120"/>
      <point x="237" y="122"/>
    </contour>
    <contour>
      <point x="456" y="410" type="line"/>
      <point x="321" y="410" type="line"/>
      <point x="321" y="355" type="line"/>
      <point x="456" y="355" type="line"/>
    </contour>
  </outline>
</glyph>
<glyph name="h" format="1">
  <advance width="552"/>
  <unicode hex="0068"/>
  <outline>
    <contour>
      <point x="213" y="79" type="line"/>
      <point x="220" y="41" type="line"/>
      <point x="159" y="26"/>
      <point x="96" y="9"/>
      <point x="31" y="-10" type="curve"/>
      <point x="24" y="24" type="line"/>
      <point x="83" y="44" type="line"/>
      <point x="83" y="679" type="line"/>
      <point x="21" y="658" type="line"/>
      <point x="10" y="693" type="line"/>
      <point x="68" y="712"/>
      <point x="121" y="733"/>
      <point x="163" y="750" type="curve"/>
      <point x="170" y="741" type="line"/>
      <point x="165" y="700"/>
      <point x="163" y="499"/>
      <point x="163" y="408" type="curve"/>
      <point x="163" y="364" type="line"/>
      <point x="300" y="460" type="line"/>
      <point x="420" y="460"/>
      <point x="522" y="367"/>
      <point x="522" y="247" type="curve"/>
      <point x="522" y="146"/>
      <point x="442" y="49"/>
      <point x="345" y="-20" type="curve"/>
      <point x="283" y="-20" type="line"/>
      <point x="283" y="-16" type="line"/>
      <point x="364" y="38"/>
      <point x="452" y="114"/>
      <point x="452" y="227" type="curve"/>
      <point x="452" y="327"/>
      <point x="362" y="380"/>
      <point x="292" y="380" type="curve"/>
      <point x="239" y="380"/>
      <point x="194" y="353"/>
      <point x="163" y="325" type="curve"/>
      <point x="163" y="65" type="line"/>
    </contour>
  </outline>
</glyph>
<glyph name="i" format="1">
  <advance width="262"/>
  <unicode hex="0069"/>
  <outline>
    <contour>
      <point x="239" y="65" type="line"/>
      <point x="247" y="28" type="line"/>
      <point x="200" y="16"/>
      <point x="153" y="4"/>
      <point x="106" y="-10" type="curve"/>
      <point x="96" y="0" type="line"/>
      <point x="101" y="127"/>
      <point x="102" y="244"/>
      <point x="100" y="378" type="curve"/>
      <point x="53" y="363" type="line"/>
      <point x="39" y="399" type="line"/>
      <point x="85" y="420"/>
      <point x="128" y="439"/>
      <point x="171" y="460" type="curve"/>
      <point x="180" y="455" type="line"/>
      <point x="180" y="47" type="line"/>
    </contour>
    <contour>
      <point x="226" y="700" type="line"/>
      <point x="160" y="700" type="line"/>
      <point x="107" y="601" type="line"/>
      <point x="107" y="600" type="line"/>
      <point x="166" y="600" type="line"/>
      <point x="226" y="699" type="line"/>
    </contour>
  </outline>
</glyph>
<glyph name="j" format="1">
  <advance width="251"/>
  <unicode hex="006A"/>
  <outline>
    <contour>
      <point x="9" y="350" type="curve"/>
      <point x="-11" y="379" type="line"/>
      <point x="105" y="460" type="line"/>
      <point x="170" y="449"/>
      <point x="207" y="408"/>
      <point x="200" y="345" type="curve"/>
      <point x="186" y="215"/>
      <point x="186" y="75"/>
      <point x="201" y="-65" type="curve"/>
      <point x="210" y="-149"/>
      <point x="116" y="-207"/>
      <point x="-29" y="-280" type="curve"/>
      <point x="-45" y="-249" type="line"/>
      <point x="71" y="-178"/>
      <point x="136" y="-137"/>
      <point x="124" y="-30" type="curve"/>
      <point x="110" y="90"/>
      <point x="107" y="210"/>
      <point x="122" y="330" type="curve"/>
      <point x="127" y="367"/>
      <point x="95" y="390"/>
      <point x="79" y="390" type="curve"/>
      <point x="58" y="390"/>
      <point x="25" y="361"/>
    </contour>
    <contour>
      <point x="195" y="700" type="line"/>
      <point x="131" y="700" type="line"/>
      <point x="78" y="595" type="line"/>
      <point x="114" y="583" type="line"/>
      <point x="197" y="695" type="line"/>
    </contour>
  </outline>
</glyph>
<glyph name="k" format="1">
  <advance width="493"/>
  <unicode hex="006B"/>
  <outline>
    <contour>
      <point x="10" y="696" type="curve"/>
      <point x="21" y="660" type="line"/>
      <point x="83" y="682" type="line"/>
      <point x="85" y="385"/>
      <point x="84" y="157"/>
      <point x="80" y="-5" type="curve"/>
      <point x="85" y="-10" type="line"/>
      <point x="130" y="3"/>
      <point x="175" y="16"/>
      <point x="220" y="26" type="curve"/>
      <point x="213" y="65" type="line"/>
      <point x="163" y="48" type="line"/>
      <point x="163" y="237" type="line"/>
      <point x="240" y="160"/>
      <point x="311" y="77"/>
      <point x="376" y="-10" type="curve"/>
      <point x="415" y="3"/>
      <point x="454" y="13"/>
      <point x="493" y="22" type="curve"/>
      <point x="480" y="62" type="line"/>
      <point x="430" y="44" type="line"/>
      <point x="364" y="124"/>
      <point x="292" y="204"/>
      <point x="227" y="270" type="curve"/>
      <point x="361" y="369" type="line" smooth="yes"/>
      <point x="389" y="390"/>
      <point x="425" y="417"/>
      <point x="447" y="428" type="curve"/>
      <point x="447" y="450" type="line"/>
      <point x="400" y="449"/>
      <point x="353" y="449"/>
      <point x="306" y="450" type="curve"/>
      <point x="306" y="414" type="line"/>
      <point x="369" y="418" type="line"/>
      <point x="163" y="265" type="line"/>
      <point x="163" y="420"/>
      <point x="164" y="588"/>
      <point x="166" y="743" type="curve"/>
      <point x="161" y="749" type="line"/>
      <point x="111" y="730"/>
      <point x="63" y="713"/>
    </contour>
  </outline>
</glyph>
<glyph name="l" format="1">
  <advance width="256"/>
  <unicode hex="006C"/>
  <outline>
    <contour>
      <point x="230" y="65" type="line"/>
      <point x="236" y="30" type="line"/>
      <point x="186" y="19"/>
      <point x="136" y="5"/>
      <point x="86" y="-10" type="curve"/>
      <point x="81" y="-5" type="line"/>
      <point x="86" y="48"/>
      <point x="90" y="271"/>
      <point x="90" y="416" type="curve"/>
      <point x="90" y="691" type="line"/>
      <point x="31" y="674" type="line"/>
      <point x="20" y="709" type="line"/>
      <point x="71" y="722"/>
      <point x="122" y="736"/>
      <point x="171" y="750" type="curve"/>
      <point x="176" y="745" type="line"/>
      <point x="166" y="513"/>
      <point x="166" y="241"/>
      <point x="170" y="49" type="curve"/>
    </contour>
  </outline>
</glyph>
<glyph name="m" format="1">
  <advance width="721"/>
  <unicode hex="006D"/>
  <outline>
    <contour>
      <point x="394" y="341" type="curve"/>
      <point x="394" y="49" type="line"/>
      <point x="454" y="65" type="line"/>
      <point x="461" y="30" type="line"/>
      <point x="408" y="17"/>
      <point x="362" y="5"/>
      <point x="314" y="-10" type="curve"/>
      <point x="307" y="-5" type="line"/>
      <point x="312" y="102"/>
      <point x="315" y="204"/>
      <point x="315" y="321" type="curve"/>
      <point x="315" y="361"/>
      <point x="271" y="390"/>
      <point x="241" y="390" type="curve"/>
      <point x="225" y="390"/>
      <point x="172" y="339"/>
      <point x="149" y="316" type="curve"/>
      <point x="149" y="47" type="line"/>
      <point x="215" y="65" type="line"/>
      <point x="222" y="30" type="line"/>
      <point x="173" y="17"/>
      <point x="129" y="6"/>
      <point x="74" y="-10" type="curve"/>
      <point x="69" y="-5" type="line"/>
      <point x="69" y="364" type="line"/>
      <point x="36" y="341" type="line"/>
      <point x="20" y="376" type="line"/>
      <point x="54" y="395"/>
      <point x="100" y="429"/>
      <point x="140" y="460" type="curve"/>
      <point x="148" y="455" type="line"/>
      <point x="148" y="351" type="line"/>
      <point x="277" y="460" type="line"/>
      <point x="351" y="439"/>
      <point x="394" y="401"/>
    </contour>
    <contour>
      <point x="391" y="316" type="curve"/>
      <point x="390" y="351" type="line"/>
      <point x="520" y="460" type="line"/>
      <point x="592" y="439"/>
      <point x="639" y="401"/>
      <point x="639" y="341" type="curve"/>
      <point x="639" y="49" type="line"/>
      <point x="699" y="65" type="line"/>
      <point x="706" y="30" type="line"/>
      <point x="653" y="17"/>
      <point x="607" y="5"/>
      <point x="559" y="-10" type="curve"/>
      <point x="554" y="-5" type="line"/>
      <point x="557" y="102"/>
      <point x="560" y="204"/>
      <point x="560" y="321" type="curve"/>
      <point x="560" y="361"/>
      <point x="518" y="390"/>
      <point x="488" y="390" type="curve"/>
      <point x="467" y="390"/>
      <point x="414" y="339"/>
    </contour>
  </outline>
</glyph>
<glyph name="n" format="1">
  <advance width="482"/>
  <unicode hex="006E"/>
  <outline>
    <contour>
      <point x="400" y="355" type="curve"/>
      <point x="400" y="54" type="line"/>
      <point x="460" y="65" type="line"/>
      <point x="467" y="30" type="line"/>
      <point x="414" y="17"/>
      <point x="368" y="5"/>
      <point x="318" y="-10" type="curve"/>
      <point x="313" y="-5" type="line"/>
      <point x="318" y="102"/>
      <point x="321" y="208"/>
      <point x="321" y="315" type="curve"/>
      <point x="321" y="365"/>
      <point x="296" y="390"/>
      <point x="266" y="390" type="curve"/>
      <point x="232" y="390"/>
      <point x="182" y="359"/>
      <point x="159" y="336" type="curve"/>
      <point x="159" y="51" type="line"/>
      <point x="225" y="65" type="line"/>
      <point x="232" y="30" type="line"/>
      <point x="183" y="17"/>
      <point x="139" y="6"/>
      <point x="84" y="-10" type="curve"/>
      <point x="79" y="-5" type="line"/>
      <point x="79" y="363" type="line"/>
      <point x="36" y="334" type="line"/>
      <point x="20" y="369" type="line"/>
      <point x="64" y="398"/>
      <point x="110" y="429"/>
      <point x="150" y="460" type="curve"/>
      <point x="158" y="455" type="line"/>
      <point x="158" y="371" type="line"/>
      <point x="286" y="460" type="line"/>
      <point x="348" y="459"/>
      <point x="400" y="425"/>
    </contour>
  </outline>
</glyph>
<glyph name="o" format="1">
  <advance width="478"/>
  <unicode hex="006F"/>
  <outline>
    <contour>
      <point x="284" y="65" type="curve"/>
      <point x="239" y="-10" type="line"/>
      <point x="129" y="0"/>
      <point x="30" y="86"/>
      <point x="30" y="209" type="curve"/>
      <point x="30" y="319"/>
      <point x="122" y="410"/>
      <point x="239" y="460" type="curve"/>
      <point x="194" y="390" type="line"/>
      <point x="137" y="370"/>
      <point x="100" y="314"/>
      <point x="100" y="249" type="curve"/>
      <point x="100" y="149"/>
      <point x="184" y="65"/>
    </contour>
    <contour>
      <point x="194" y="390" type="curve"/>
      <point x="239" y="460" type="line"/>
      <point x="349" y="450"/>
      <point x="448" y="364"/>
      <point x="448" y="241" type="curve"/>
      <point x="448" y="131"/>
      <point x="356" y="40"/>
      <point x="239" y="-10" type="curve"/>
      <point x="284" y="65" type="line"/>
      <point x="341" y="85"/>
      <point x="378" y="136"/>
      <point x="378" y="201" type="curve"/>
      <point x="378" y="301"/>
      <point x="294" y="390"/>
    </contour>
  </outline>
</glyph>
<glyph name="p" format="1">
  <advance width="504"/>
  <unicode hex="0070"/>
  <outline>
    <contour>
      <point x="39" y="367" type="line"/>
      <point x="27" y="403" type="line"/>
      <point x="85" y="432"/>
      <point x="135" y="459"/>
      <point x="174" y="482" type="curve"/>
      <point x="188" y="475" type="line"/>
      <point x="184" y="447"/>
      <point x="181" y="407"/>
      <point x="181" y="375" type="curve"/>
      <point x="302" y="460" type="line"/>
      <point x="414" y="451"/>
      <point x="474" y="355"/>
      <point x="474" y="255" type="curve"/>
      <point x="474" y="140"/>
      <point x="346" y="50"/>
      <point x="298" y="31" type="curve"/>
      <point x="276" y="22"/>
      <point x="223" y="22"/>
      <point x="177" y="27" type="curve"/>
      <point x="177" y="-233" type="line"/>
      <point x="268" y="-229" type="line"/>
      <point x="268" y="-270" type="line"/>
      <point x="207" y="-270"/>
      <point x="152" y="-271"/>
      <point x="99" y="-275" type="curve"/>
      <point x="95" y="-270" type="line"/>
      <point x="97" y="-168"/>
      <point x="101" y="-68"/>
      <point x="101" y="29" type="curve"/>
      <point x="84" y="29"/>
      <point x="49" y="24"/>
      <point x="27" y="14" type="curve"/>
      <point x="20" y="31" type="line"/>
      <point x="79" y="94" type="line"/>
      <point x="101" y="94" type="line"/>
      <point x="101" y="397" type="line"/>
    </contour>
    <contour>
      <point x="182" y="343" type="curve"/>
      <point x="178" y="92" type="line"/>
      <point x="197" y="89"/>
      <point x="233" y="86"/>
      <point x="265" y="86" type="curve"/>
      <point x="347" y="86"/>
      <point x="404" y="140"/>
      <point x="404" y="215" type="curve"/>
      <point x="404" y="321"/>
      <point x="334" y="380"/>
      <point x="261" y="380" type="curve"/>
      <point x="226" y="380"/>
      <point x="195" y="356"/>
    </contour>
  </outline>
</glyph>
<glyph name="q" format="1">
  <advance width="468"/>
  <unicode hex="0071"/>
  <outline>
    <contour>
      <point x="361" y="413" type="curve"/>
      <point x="376" y="435"/>
      <point x="402" y="457"/>
      <point x="427" y="473" type="curve"/>
      <point x="438" y="464" type="line"/>
      <point x="413" y="391"/>
      <point x="412" y="278"/>
      <point x="412" y="107" type="curve"/>
      <point x="412" y="-224" type="line"/>
      <point x="459" y="-219" type="line"/>
      <point x="463" y="-257" type="line"/>
      <point x="391" y="-266"/>
      <point x="319" y="-277"/>
      <point x="247" y="-292" type="curve"/>
      <point x="240" y="-247" type="line"/>
      <point x="332" y="-233" type="line"/>
      <point x="332" y="87" type="line"/>
      <point x="228" y="-10" type="line"/>
      <point x="112" y="-10"/>
      <point x="30" y="86"/>
      <point x="30" y="201" type="curve"/>
      <point x="30" y="333"/>
      <point x="132" y="430"/>
      <point x="253" y="460" type="curve"/>
      <point x="305" y="448"/>
      <point x="334" y="434"/>
    </contour>
    <contour>
      <point x="219" y="390" type="curve"/>
      <point x="139" y="390"/>
      <point x="90" y="331"/>
      <point x="90" y="241" type="curve"/>
      <point x="90" y="141"/>
      <point x="158" y="65"/>
      <point x="228" y="65" type="curve"/>
      <point x="270" y="65"/>
      <point x="320" y="106"/>
      <point x="331" y="143" type="curve"/>
      <point x="331" y="332" type="line"/>
      <point x="310" y="364"/>
      <point x="269" y="390"/>
    </contour>
  </outline>
</glyph>
<glyph name="r" format="1">
  <advance width="349"/>
  <unicode hex="0072"/>
  <outline>
    <contour>
      <point x="228" y="65" type="line"/>
      <point x="234" y="30" type="line"/>
      <point x="182" y="17"/>
      <point x="130" y="3"/>
      <point x="86" y="-10" type="curve"/>
      <point x="81" y="-5" type="line"/>
      <point x="86" y="122"/>
      <point x="89" y="250"/>
      <point x="87" y="384" type="curve"/>
      <point x="37" y="364" type="line"/>
      <point x="25" y="399" type="line"/>
      <point x="70" y="418"/>
      <point x="113" y="438"/>
      <point x="156" y="460" type="curve"/>
      <point x="165" y="455" type="line"/>
      <point x="165" y="54" type="line"/>
    </contour>
    <contour>
      <point x="161" y="331" type="curve"/>
      <point x="149" y="352" type="line"/>
      <point x="190" y="385"/>
      <point x="227" y="427"/>
      <point x="256" y="460" type="curve"/>
      <point x="257" y="460" type="line"/>
      <point x="294" y="455"/>
      <point x="327" y="426"/>
      <point x="339" y="398" type="curve"/>
      <point x="282" y="336" type="line"/>
      <point x="280" y="336" type="line"/>
      <point x="264" y="359"/>
      <point x="246" y="372"/>
      <point x="221" y="372" type="curve"/>
      <point x="199" y="372"/>
      <point x="170" y="344"/>
    </contour>
  </outline>
</glyph>
<glyph name="s" format="1">
  <advance width="425"/>
  <unicode hex="0073"/>
  <outline>
    <contour>
      <point x="30" y="119" type="curve"/>
      <point x="30" y="121" type="line"/>
      <point x="113" y="148" type="line"/>
      <point x="141" y="83"/>
      <point x="181" y="35"/>
      <point x="245" y="35" type="curve"/>
      <point x="284" y="35"/>
      <point x="332" y="74"/>
      <point x="332" y="124" type="curve"/>
      <point x="332" y="170"/>
      <point x="309" y="190"/>
      <point x="198" y="199" type="curve"/>
      <point x="158" y="202"/>
      <point x="101" y="209"/>
      <point x="72" y="242" type="curve"/>
      <point x="52" y="265"/>
      <point x="43" y="298"/>
      <point x="43" y="328" type="curve"/>
      <point x="43" y="398"/>
      <point x="133" y="460"/>
      <point x="223" y="460" type="curve"/>
      <point x="298" y="460"/>
      <point x="350" y="427"/>
      <point x="385" y="387" type="curve"/>
      <point x="385" y="385" type="line"/>
      <point x="301" y="350" type="line"/>
      <point x="267" y="391"/>
      <point x="240" y="419"/>
      <point x="195" y="419" type="curve"/>
      <point x="149" y="419"/>
      <point x="113" y="389"/>
      <point x="113" y="349" type="curve"/>
      <point x="113" y="294"/>
      <point x="156" y="280"/>
      <point x="252" y="271" type="curve"/>
      <point x="311" y="266"/>
      <point x="345" y="258"/>
      <point x="366" y="240" type="curve"/>
      <point x="402" y="210"/>
      <point x="402" y="129"/>
      <point x="378" y="89" type="curve"/>
      <point x="345" y="32"/>
      <point x="270" y="-10"/>
      <point x="211" y="-10" type="curve"/>
      <point x="151" y="-10"/>
      <point x="88" y="20"/>
    </contour>
  </outline>
</glyph>
<glyph name="t" format="1">
  <advance width="295"/>
  <unicode hex="0074"/>
  <outline>
    <contour>
      <point x="280" y="74" type="curve"/>
      <point x="284" y="68" type="line"/>
      <point x="262" y="36"/>
      <point x="216" y="-10"/>
      <point x="185" y="-10" type="curve"/>
      <point x="107" y="-10"/>
      <point x="68" y="40"/>
      <point x="68" y="140" type="curve"/>
      <point x="68" y="390" type="line"/>
      <point x="24" y="390" type="line"/>
      <point x="24" y="408" type="line"/>
      <point x="60" y="449"/>
      <point x="111" y="509"/>
      <point x="140" y="556" type="curve"/>
      <point x="158" y="548" type="line"/>
      <point x="149" y="450" type="line"/>
      <point x="285" y="450" type="line"/>
      <point x="275" y="390" type="line"/>
      <point x="148" y="390" type="line"/>
      <point x="148" y="178" type="line" smooth="yes"/>
      <point x="148" y="88"/>
      <point x="152" y="65"/>
      <point x="210" y="65" type="curve"/>
      <point x="217" y="65"/>
      <point x="248" y="67"/>
    </contour>
  </outline>
</glyph>
<glyph name="u" format="1">
  <advance width="477"/>
  <unicode hex="0075"/>
  <outline>
    <contour>
      <point x="338" y="109" type="curve"/>
      <point x="347" y="84" type="line"/>
      <point x="184" y="-10" type="line"/>
      <point x="114" y="0"/>
      <point x="83" y="30"/>
      <point x="83" y="120" type="curve"/>
      <point x="83" y="390" type="line"/>
      <point x="163" y="390" type="line"/>
      <point x="163" y="158" type="line" smooth="yes"/>
      <point x="163" y="75"/>
      <point x="196" y="65"/>
      <point x="227" y="65" type="curve"/>
      <point x="260" y="65"/>
      <point x="321" y="96"/>
    </contour>
    <contour>
      <point x="395" y="460" type="curve"/>
      <point x="404" y="455" type="line"/>
      <point x="404" y="334" type="line"/>
      <point x="404" y="70" type="line"/>
      <point x="464" y="92" type="line"/>
      <point x="475" y="68" type="line"/>
      <point x="331" y="-10" type="line"/>
      <point x="324" y="-5" type="line"/>
      <point x="324" y="334" type="line"/>
      <point x="324" y="375" type="line"/>
      <point x="287" y="353" type="line"/>
      <point x="271" y="388" type="line"/>
      <point x="314" y="412"/>
      <point x="356" y="436"/>
    </contour>
    <contour>
      <point x="163" y="455" type="line"/>
      <point x="163" y="334" type="line"/>
      <point x="83" y="334" type="line"/>
      <point x="83" y="375" type="line"/>
      <point x="46" y="353" type="line"/>
      <point x="30" y="388" type="line"/>
      <point x="72" y="411"/>
      <point x="114" y="435"/>
      <point x="154" y="460" type="curve"/>
    </contour>
  </outline>
</glyph>
<glyph name="v" format="1">
  <advance width="485"/>
  <unicode hex="0076"/>
  <outline>
    <contour>
      <point x="234" y="-20" type="curve"/>
      <point x="248" y="-20" type="line"/>
      <point x="480" y="431" type="line"/>
      <point x="475" y="438" type="line"/>
      <point x="445" y="437"/>
      <point x="396" y="437"/>
      <point x="320" y="438" type="curve"/>
      <point x="320" y="390" type="line"/>
      <point x="406" y="392" type="line"/>
      <point x="275" y="105" type="line"/>
      <point x="148" y="455" type="line"/>
      <point x="139" y="459" type="line"/>
      <point x="107" y="434"/>
      <point x="64" y="404"/>
      <point x="10" y="367" type="curve"/>
      <point x="31" y="332" type="line"/>
      <point x="89" y="361" type="line"/>
      <point x="137" y="255"/>
      <point x="186" y="118"/>
    </contour>
  </outline>
</glyph>
<glyph name="w" format="1">
  <advance width="694"/>
  <unicode hex="0077"/>
  <outline>
    <contour>
      <point x="131" y="460" type="curve"/>
      <point x="128" y="460" type="line"/>
      <point x="87" y="429"/>
      <point x="45" y="399"/>
      <point x="0" y="370" type="curve"/>
      <point x="22" y="333" type="line"/>
      <point x="76" y="372" type="line"/>
      <point x="206" y="94" type="line" smooth="yes"/>
      <point x="220" y="64"/>
      <point x="238" y="20"/>
      <point x="252" y="-20" type="curve"/>
      <point x="262" y="-20" type="line"/>
      <point x="368" y="244" type="line"/>
      <point x="426" y="107" type="line" smooth="yes"/>
      <point x="446" y="60"/>
      <point x="461" y="29"/>
      <point x="475" y="-20" type="curve"/>
      <point x="485" y="-20" type="line"/>
      <point x="550" y="134"/>
      <point x="665" y="402"/>
      <point x="699" y="446" type="curve"/>
      <point x="697" y="450" type="line"/>
      <point x="553" y="450" type="line"/>
      <point x="553" y="408" type="line"/>
      <point x="632" y="412" type="line"/>
      <point x="504" y="115" type="line"/>
      <point x="457" y="228"/>
      <point x="411" y="345"/>
      <point x="360" y="460" type="curve"/>
      <point x="358" y="460" type="line"/>
      <point x="319" y="430"/>
      <point x="278" y="402"/>
      <point x="235" y="374" type="curve"/>
      <point x="256" y="341" type="line"/>
      <point x="310" y="376" type="line"/>
      <point x="351" y="284" type="line"/>
      <point x="281" y="115" type="line"/>
      <point x="233" y="227"/>
      <point x="186" y="351"/>
    </contour>
  </outline>
</glyph>
<glyph name="x" format="1">
  <advance width="474"/>
  <unicode hex="0078"/>
  <outline>
    <contour>
      <point x="28" y="349" type="curve"/>
      <point x="9" y="358" type="line"/>
      <point x="24" y="413"/>
      <point x="67" y="460"/>
      <point x="119" y="460" type="curve"/>
      <point x="146" y="460"/>
      <point x="164" y="443"/>
      <point x="196" y="391" type="curve"/>
      <point x="238" y="323" type="line"/>
      <point x="339" y="460" type="line"/>
      <point x="380" y="460"/>
      <point x="399" y="442"/>
      <point x="430" y="442" type="curve"/>
      <point x="443" y="442"/>
      <point x="457" y="444"/>
      <point x="467" y="450" type="curve"/>
      <point x="470" y="447" type="line"/>
      <point x="448" y="416"/>
      <point x="432" y="392"/>
      <point x="419" y="360" type="curve"/>
      <point x="378" y="348"/>
      <point x="358" y="375"/>
      <point x="325" y="375" type="curve"/>
      <point x="255" y="285" type="line"/>
      <point x="327" y="164" type="line" smooth="yes"/>
      <point x="360" y="108"/>
      <point x="392" y="65"/>
      <point x="417" y="65" type="curve"/>
      <point x="431" y="65"/>
      <point x="441" y="70"/>
      <point x="458" y="84" type="curve"/>
      <point x="474" y="65" type="line"/>
      <point x="448" y="28"/>
      <point x="390" y="-10"/>
      <point x="364" y="-10" type="curve"/>
      <point x="339" y="-10"/>
      <point x="322" y="4"/>
      <point x="308" y="32" type="curve"/>
      <point x="211" y="220" type="line"/>
      <point x="56" y="0" type="line"/>
      <point x="1" y="0" type="line"/>
      <point x="0" y="4" type="line"/>
      <point x="189" y="260" type="line"/>
      <point x="140" y="344" type="line" smooth="yes"/>
      <point x="122" y="375"/>
      <point x="108" y="390"/>
      <point x="90" y="390" type="curve"/>
      <point x="63" y="390"/>
      <point x="41" y="368"/>
    </contour>
  </outline>
</glyph>
<glyph name="y" format="1">
  <advance width="454"/>
  <unicode hex="0079"/>
  <outline>
    <contour>
      <point x="408" y="407" type="line"/>
      <point x="283" y="135" type="line"/>
      <point x="231" y="242"/>
      <point x="181" y="348"/>
      <point x="135" y="455" type="curve"/>
      <point x="125" y="460" type="line"/>
      <point x="93" y="432"/>
      <point x="46" y="401"/>
      <point x="0" y="371" type="curve"/>
      <point x="25" y="332" type="line"/>
      <point x="76" y="373" type="line"/>
      <point x="242" y="48" type="line"/>
      <point x="186" y="-63" type="line" smooth="yes"/>
      <point x="140" y="-154"/>
      <point x="100" y="-233"/>
      <point x="48" y="-260" type="curve"/>
      <point x="48" y="-275" type="line"/>
      <point x="75" y="-272"/>
      <point x="117" y="-270"/>
      <point x="144" y="-270" type="curve"/>
      <point x="464" y="437" type="line"/>
      <point x="459" y="450" type="line"/>
      <point x="423" y="449"/>
      <point x="382" y="449"/>
      <point x="337" y="450" type="curve"/>
      <point x="337" y="414" type="line"/>
    </contour>
  </outline>
</glyph>
<glyph name="z" format="1">
  <advance width="451"/>
  <unicode hex="007A"/>
  <outline>
    <contour>
      <point x="404" y="455" type="curve"/>
      <point x="431" y="434" type="line"/>
      <point x="151" y="109" type="line"/>
      <point x="218" y="109"/>
      <point x="313" y="65"/>
      <point x="354" y="65" type="curve"/>
      <point x="376" y="65"/>
      <point x="396" y="75"/>
      <point x="424" y="100" type="curve"/>
      <point x="441" y="86" type="line"/>
      <point x="411" y="50"/>
      <point x="373" y="-10"/>
      <point x="358" y="-10" type="curve"/>
      <point x="298" y="-10"/>
      <point x="180" y="35"/>
      <point x="125" y="35" type="curve"/>
      <point x="90" y="35"/>
      <point x="72" y="19"/>
      <point x="46" y="-10" type="curve"/>
      <point x="17" y="14" type="line"/>
      <point x="320" y="362" type="line"/>
      <point x="308" y="360"/>
      <point x="276" y="359"/>
      <point x="256" y="359" type="curve"/>
      <point x="185" y="359"/>
      <point x="136" y="390"/>
      <point x="105" y="390" type="curve"/>
      <point x="77" y="390"/>
      <point x="53" y="372"/>
      <point x="38" y="337" type="curve"/>
      <point x="15" y="345" type="line"/>
      <point x="33" y="402"/>
      <point x="62" y="460"/>
      <point x="105" y="460" type="curve"/>
      <point x="170" y="460"/>
      <point x="207" y="423"/>
      <point x="305" y="423" type="curve"/>
      <point x="341" y="423"/>
      <point x="378" y="434"/>
    </contour>
  </outline>
</glyph>
<glyph name="paragraph" format="1">
  <advance width="769"/>
  <unicode hex="00B6"/>
  <outline>
    <contour>
      <point x="689" y="700" type="line"/>
      <point x="689" y="655" type="line"/>
      <point x="632" y="653" type="line"/>
      <point x="626" y="428"/>
      <point x="626" y="203"/>
      <point x="630" y="-22" type="curve"/>
      <point x="632" y="-136"/>
      <point x="643" y="-221"/>
      <point x="664" y="-270" type="curve"/>
      <point x="601" y="-280" type="line"/>
      <point x="573" y="-236"/>
      <point x="564" y="-159"/>
      <point x="564" y="-105" type="curve"/>
      <point x="431" y="-105" type="line" smooth="yes"/>
      <point x="211" y="-105"/>
      <point x="50" y="61"/>
      <point x="50" y="301" type="curve"/>
      <point x="50" y="541"/>
      <point x="259" y="700"/>
      <point x="479" y="700" type="curve"/>
    </contour>
    <contour>
      <point x="570" y="650" type="line"/>
      <point x="525" y="650" type="line"/>
      <point x="525" y="-60" type="line"/>
      <point x="570" y="-60" type="line"/>
    </contour>
    <contour>
      <point x="465" y="645" type="curve"/>
      <point x="285" y="645"/>
      <point x="230" y="551"/>
      <point x="230" y="301" type="curve"/>
      <point x="230" y="51"/>
      <point x="285" y="-56"/>
      <point x="465" y="-56" type="curve"/>
      <point x="467" y="178"/>
      <point x="467" y="411"/>
    </contour>
  </outline>
</glyph>
<glyph name="ccedilla" format="1">
  <advance width="360"/>
  <unicode hex="00E7"/>
  <outline>
    <contour>
      <point x="231" y="65" type="curve"/>
      <point x="271" y="65"/>
      <point x="304" y="85"/>
      <point x="334" y="107" type="curve"/>
      <point x="350" y="85" type="line"/>
      <point x="306" y="47"/>
      <point x="266" y="18"/>
      <point x="221" y="-10" type="curve"/>
      <point x="67" y="-6"/>
      <point x="30" y="94"/>
      <point x="30" y="221" type="curve"/>
      <point x="30" y="349"/>
      <point x="130" y="460"/>
      <point x="207" y="460" type="curve"/>
      <point x="235" y="460"/>
      <point x="295" y="439"/>
      <point x="349" y="423" type="curve"/>
      <point x="349" y="410" type="line"/>
      <point x="278" y="358" type="line"/>
      <point x="241" y="374"/>
      <point x="174" y="398"/>
      <point x="136" y="398" type="curve"/>
      <point x="114" y="398"/>
      <point x="90" y="320"/>
      <point x="90" y="261" type="curve"/>
      <point x="90" y="150"/>
      <point x="151" y="65"/>
    </contour>
    <contour>
      <point x="197" y="15" type="curve"/>
      <point x="217" y="6" type="line"/>
      <point x="203" y="-13"/>
      <point x="195" y="-33"/>
      <point x="195" y="-45" type="curve"/>
      <point x="195" y="-87"/>
      <point x="311" y="-57"/>
      <point x="311" y="-127" type="curve"/>
      <point x="311" y="-179"/>
      <point x="234" y="-265"/>
      <point x="110" y="-265" type="curve"/>
      <point x="106" y="-237" type="line"/>
      <point x="195" y="-237"/>
      <point x="251" y="-190"/>
      <point x="251" y="-152" type="curve"/>
      <point x="251" y="-104"/>
      <point x="141" y="-126"/>
      <point x="141" y="-87" type="curve"/>
      <point x="141" y="-59"/>
      <point x="177" y="-17"/>
    </contour>
  </outline>
</glyph>
<glyph name="f_f" format="1">
  <advance width="494"/>
  <unicode hex="FB00"/>
  <outline>
    <contour>
      <point x="375" y="637" type="curve"/>
      <point x="336" y="593" type="line"/>
      <point x="322" y="619"/>
      <point x="281" y="653"/>
      <point x="230" y="653" type="curve"/>
      <point x="173" y="653"/>
      <point x="132" y="609"/>
      <point x="132" y="498" type="curve"/>
      <point x="132" y="435" type="line"/>
      <point x="247" y="435" type="line"/>
      <point x="255" y="450"/>
      <point x="278" y="532"/>
      <point x="301" y="569" type="curve"/>
      <point x="338" y="628"/>
      <point x="391" y="693"/>
      <point x="488" y="693" type="curve"/>
      <point x="541" y="693"/>
      <point x="584" y="663"/>
      <point x="584" y="639" type="curve"/>
      <point x="584" y="624"/>
      <point x="568" y="611"/>
      <point x="545" y="611" type="curve"/>
      <point x="512" y="611"/>
      <point x="505" y="653"/>
      <point x="458" y="653" type="curve"/>
      <point x="369" y="653"/>
      <point x="355" y="551"/>
      <point x="355" y="435" type="curve"/>
      <point x="475" y="435" type="line"/>
      <point x="465" y="390" type="line"/>
      <point x="357" y="390" type="line"/>
      <point x="357" y="319" type="line"/>
      <point x="287" y="319" type="line"/>
      <point x="287" y="390" type="line"/>
      <point x="129" y="390" type="line"/>
      <point x="129" y="349" type="line"/>
      <point x="54" y="349" type="line"/>
      <point x="54" y="460" type="line"/>
      <point x="23" y="460" type="line"/>
      <point x="20" y="470" type="line"/>
      <point x="70" y="515"/>
      <point x="113" y="693"/>
      <point x="250" y="693" type="curve"/>
      <point x="307" y="693"/>
      <point x="354" y="663"/>
    </contour>
    <contour>
      <point x="54" y="435" type="curve"/>
      <point x="129" y="390" type="line"/>
      <point x="129" y="41" type="line"/>
      <point x="193" y="53" type="line"/>
      <point x="199" y="15" type="line"/>
      <point x="151" y="8"/>
      <point x="101" y="-1"/>
      <point x="53" y="-10" type="curve"/>
      <point x="50" y="-5" type="line"/>
      <point x="54" y="185"/>
      <point x="55" y="224"/>
    </contour>
    <contour>
      <point x="286" y="440" type="curve"/>
      <point x="361" y="390" type="line"/>
      <point x="361" y="41" type="line"/>
      <point x="430" y="53" type="line"/>
      <point x="436" y="15" type="line"/>
      <point x="388" y="9"/>
      <point x="333" y="0"/>
      <point x="285" y="-10" type="curve"/>
      <point x="282" y="-5" type="line"/>
      <point x="286" y="185"/>
      <point x="287" y="229"/>
    </contour>
  </outline>
</glyph>
<glyph name="f_f_l" format="1">
  <advance width="752"/>
  <unicode hex="FB04"/>
  <outline>
    <contour>
      <point x="585" y="633" type="curve"/>
      <point x="585" y="679"/>
      <point x="580" y="707"/>
      <point x="559" y="733" type="curve"/>
      <point x="576" y="751" type="line"/>
      <point x="623" y="715" type="line"/>
      <point x="637" y="729"/>
      <point x="652" y="740"/>
      <point x="670" y="750" type="curve"/>
      <point x="681" y="736" type="line"/>
      <point x="662" y="718"/>
      <point x="662" y="645"/>
      <point x="662" y="593" type="curve"/>
      <point x="662" y="41" type="line"/>
      <point x="726" y="53" type="line"/>
      <point x="732" y="15" type="line"/>
      <point x="684" y="8"/>
      <point x="636" y="-1"/>
      <point x="582" y="-10" type="curve"/>
      <point x="579" y="-5" type="line"/>
      <point x="585" y="168"/>
      <point x="586" y="205"/>
    </contour>
    <contour>
      <point x="410" y="637" type="curve"/>
      <point x="360" y="577" type="line"/>
      <point x="346" y="603"/>
      <point x="296" y="643"/>
      <point x="245" y="643" type="curve"/>
      <point x="198" y="643"/>
      <point x="137" y="609"/>
      <point x="137" y="498" type="curve"/>
      <point x="137" y="435" type="line"/>
      <point x="282" y="435" type="line"/>
      <point x="290" y="450"/>
      <point x="313" y="532"/>
      <point x="336" y="569" type="curve"/>
      <point x="373" y="628"/>
      <point x="426" y="693"/>
      <point x="523" y="693" type="curve"/>
      <point x="576" y="693"/>
      <point x="619" y="663"/>
      <point x="619" y="639" type="curve"/>
      <point x="619" y="624"/>
      <point x="603" y="611"/>
      <point x="580" y="611" type="curve"/>
      <point x="547" y="611"/>
      <point x="540" y="653"/>
      <point x="493" y="653" type="curve"/>
      <point x="404" y="653"/>
      <point x="380" y="551"/>
      <point x="380" y="435" type="curve"/>
      <point x="506" y="435" type="line"/>
      <point x="496" y="390" type="line"/>
      <point x="382" y="390" type="line"/>
      <point x="382" y="319" type="line"/>
      <point x="312" y="319" type="line"/>
      <point x="312" y="390" type="line"/>
      <point x="134" y="390" type="line"/>
      <point x="134" y="349" type="line"/>
      <point x="59" y="349" type="line"/>
      <point x="59" y="460" type="line"/>
      <point x="23" y="460" type="line"/>
      <point x="20" y="470" type="line"/>
      <point x="70" y="518"/>
      <point x="128" y="693"/>
      <point x="285" y="693" type="curve"/>
      <point x="342" y="693"/>
      <point x="389" y="663"/>
    </contour>
    <contour>
      <point x="59" y="435" type="curve"/>
      <point x="134" y="390" type="line"/>
      <point x="134" y="41" type="line"/>
      <point x="198" y="53" type="line"/>
      <point x="204" y="15" type="line"/>
      <point x="156" y="8"/>
      <point x="106" y="-1"/>
      <point x="58" y="-10" type="curve"/>
      <point x="55" y="-5" type="line"/>
      <point x="59" y="185"/>
      <point x="60" y="224"/>
    </contour>
    <contour>
      <point x="311" y="440" type="curve"/>
      <point x="386" y="390" type="line"/>
      <point x="386" y="41" type="line"/>
      <point x="455" y="53" type="line"/>
      <point x="461" y="15" type="line"/>
      <point x="413" y="9"/>
      <point x="358" y="0"/>
      <point x="310" y="-10" type="curve"/>
      <point x="307" y="-5" type="line"/>
      <point x="311" y="185"/>
      <point x="312" y="229"/>
    </contour>
  </outline>
</glyph>
<glyph name="c_t" format="1">
  <advance width="632"/>
  <outline>
    <contour>
      <point x="593" y="120" type="curve"/>
      <point x="610" y="98" type="line"/>
      <point x="583" y="64"/>
      <point x="508" y="9"/>
      <point x="458" y="-10" type="curve"/>
      <point x="400" y="-10"/>
      <point x="361" y="60"/>
      <point x="361" y="110" type="curve"/>
      <point x="361" y="390" type="line"/>
      <point x="361" y="462" type="line" smooth="yes"/>
      <point x="361" y="588"/>
      <point x="349" y="675"/>
      <point x="238" y="675" type="curve"/>
      <point x="197" y="675"/>
      <point x="152" y="646"/>
      <point x="152" y="596" type="curve"/>
      <point x="152" y="550"/>
      <point x="194" y="502"/>
      <point x="259" y="468" type="curve"/>
      <point x="243" y="445" type="line"/>
      <point x="174" y="483"/>
      <point x="82" y="537"/>
      <point x="82" y="608" type="curve"/>
      <point x="82" y="661"/>
      <point x="143" y="710"/>
      <point x="233" y="710" type="curve"/>
      <point x="378" y="710"/>
      <point x="442" y="626"/>
      <point x="442" y="518" type="curve"/>
      <point x="442" y="450" type="line"/>
      <point x="622" y="450" type="line"/>
      <point x="612" y="390" type="line"/>
      <point x="441" y="390" type="line"/>
      <point x="441" y="158" type="line" smooth="yes"/>
      <point x="441" y="88"/>
      <point x="455" y="65"/>
      <point x="493" y="65" type="curve"/>
      <point x="520" y="65"/>
      <point x="552" y="86"/>
    </contour>
    <contour>
      <point x="241" y="65" type="curve"/>
      <point x="281" y="65"/>
      <point x="336" y="106"/>
      <point x="366" y="131" type="curve"/>
      <point x="382" y="103" type="line"/>
      <point x="338" y="65"/>
      <point x="276" y="18"/>
      <point x="231" y="-10" type="curve"/>
      <point x="77" y="-6"/>
      <point x="40" y="94"/>
      <point x="40" y="211" type="curve"/>
      <point x="40" y="349"/>
      <point x="123" y="416"/>
      <point x="210" y="436" type="curve"/>
      <point x="238" y="426"/>
      <point x="293" y="406"/>
      <point x="344" y="380" type="curve"/>
      <point x="344" y="370" type="line"/>
      <point x="290" y="325" type="line"/>
      <point x="225" y="359"/>
      <point x="179" y="372"/>
      <point x="151" y="372" type="curve"/>
      <point x="129" y="372"/>
      <point x="100" y="320"/>
      <point x="100" y="261" type="curve"/>
      <point x="100" y="150"/>
      <point x="141" y="65"/>
    </contour>
  </outline>
</glyph>
<glyph name="f_f_i" format="1">
  <advance width="694"/>
  <outline>
    <contour>
      <point x="392" y="607" type="curve"/>
      <point x="349" y="565" type="line"/>
      <point x="341" y="594"/>
      <point x="311" y="651"/>
      <point x="251" y="651" type="curve"/>
      <point x="187" y="651"/>
      <point x="133" y="588"/>
      <point x="133" y="475" type="curve"/>
      <point x="133" y="434" type="line"/>
      <point x="294" y="434" type="line"/>
      <point x="294" y="390" type="line"/>
      <point x="138" y="390" type="line"/>
      <point x="138" y="41" type="line"/>
      <point x="202" y="53" type="line"/>
      <point x="208" y="15" type="line"/>
      <point x="160" y="8"/>
      <point x="110" y="-1"/>
      <point x="56" y="-10" type="curve"/>
      <point x="53" y="-5" type="line"/>
      <point x="63" y="185"/>
      <point x="64" y="249"/>
      <point x="63" y="460" type="curve"/>
      <point x="23" y="460" type="line"/>
      <point x="20" y="470" type="line"/>
      <point x="72" y="529"/>
      <point x="139" y="693"/>
      <point x="271" y="693" type="curve"/>
      <point x="335" y="693"/>
      <point x="392" y="633"/>
    </contour>
    <contour>
      <point x="588" y="637" type="curve"/>
      <point x="588" y="615"/>
      <point x="573" y="608"/>
      <point x="559" y="608" type="curve"/>
      <point x="529" y="608"/>
      <point x="514" y="651"/>
      <point x="468" y="651" type="curve"/>
      <point x="411" y="651"/>
      <point x="360" y="572"/>
      <point x="360" y="435" type="curve"/>
      <point x="591" y="435" type="line"/>
      <point x="591" y="390" type="line"/>
      <point x="355" y="390" type="line"/>
      <point x="355" y="41" type="line"/>
      <point x="419" y="53" type="line"/>
      <point x="425" y="15" type="line"/>
      <point x="377" y="8"/>
      <point x="334" y="-1"/>
      <point x="280" y="-10" type="curve"/>
      <point x="277" y="-5" type="line"/>
      <point x="287" y="185"/>
      <point x="288" y="229"/>
      <point x="287" y="460" type="curve"/>
      <point x="250" y="460" type="line"/>
      <point x="247" y="470" type="line"/>
      <point x="320" y="552"/>
      <point x="377" y="693"/>
      <point x="499" y="693" type="curve"/>
      <point x="546" y="693"/>
      <point x="588" y="663"/>
    </contour>
    <contour>
      <point x="541" y="423" type="curve"/>
      <point x="614" y="460" type="line"/>
      <point x="619" y="455" type="line"/>
      <point x="609" y="319"/>
      <point x="608" y="177"/>
      <point x="609" y="41" type="curve"/>
      <point x="673" y="53" type="line"/>
      <point x="679" y="15" type="line"/>
      <point x="631" y="8"/>
      <point x="588" y="-1"/>
      <point x="534" y="-10" type="curve"/>
      <point x="531" y="-5" type="line"/>
      <point x="540" y="185"/>
      <point x="541" y="192"/>
    </contour>
  </outline>
</glyph>
<glyph name="f_i" format="1">
  <advance width="464"/>
  <outline>
    <contour>
      <point x="361" y="637" type="curve"/>
      <point x="361" y="615"/>
      <point x="346" y="608"/>
      <point x="332" y="608" type="curve"/>
      <point x="302" y="608"/>
      <point x="287" y="651"/>
      <point x="241" y="651" type="curve"/>
      <point x="184" y="651"/>
      <point x="133" y="572"/>
      <point x="133" y="435" type="curve"/>
      <point x="364" y="435" type="line"/>
      <point x="364" y="390" type="line"/>
      <point x="128" y="390" type="line"/>
      <point x="128" y="41" type="line"/>
      <point x="192" y="53" type="line"/>
      <point x="198" y="15" type="line"/>
      <point x="149" y="8"/>
      <point x="105" y="-1"/>
      <point x="60" y="-10" type="curve"/>
      <point x="57" y="-5" type="line"/>
      <point x="60" y="185"/>
      <point x="63" y="229"/>
      <point x="60" y="460" type="curve"/>
      <point x="23" y="460" type="line"/>
      <point x="20" y="470" type="line"/>
      <point x="93" y="552"/>
      <point x="150" y="693"/>
      <point x="272" y="693" type="curve"/>
      <point x="319" y="693"/>
      <point x="361" y="663"/>
    </contour>
    <contour>
      <point x="311" y="423" type="curve"/>
      <point x="384" y="460" type="line"/>
      <point x="389" y="455" type="line"/>
      <point x="384" y="317"/>
      <point x="380" y="179"/>
      <point x="379" y="41" type="curve"/>
      <point x="443" y="53" type="line"/>
      <point x="449" y="15" type="line"/>
      <point x="401" y="8"/>
      <point x="358" y="-1"/>
      <point x="304" y="-10" type="curve"/>
      <point x="301" y="-5" type="line"/>
      <point x="306" y="138"/>
      <point x="310" y="280"/>
    </contour>
  </outline>
</glyph>
<glyph name="f_l" format="1">
  <advance width="497"/>
  <outline>
    <contour>
      <point x="142" y="390" type="line"/>
      <point x="341" y="390" type="line"/>
      <point x="341" y="435" type="line"/>
      <point x="137" y="435" type="line"/>
      <point x="137" y="477" type="line" smooth="yes"/>
      <point x="137" y="580"/>
      <point x="157" y="641"/>
      <point x="231" y="641" type="curve"/>
      <point x="267" y="641"/>
      <point x="278" y="601"/>
      <point x="308" y="601" type="curve"/>
      <point x="315" y="601"/>
      <point x="339" y="607"/>
      <point x="341" y="613" type="curve"/>
      <point x="350" y="663" type="line"/>
      <point x="330" y="674"/>
      <point x="304" y="683"/>
      <point x="271" y="683" type="curve"/>
      <point x="119" y="683"/>
      <point x="72" y="549"/>
      <point x="20" y="470" type="curve"/>
      <point x="23" y="460" type="line"/>
      <point x="63" y="460" type="line"/>
      <point x="64" y="229"/>
      <point x="65" y="185"/>
      <point x="58" y="-5" type="curve"/>
      <point x="61" y="-10" type="line"/>
      <point x="115" y="-1"/>
      <point x="160" y="8"/>
      <point x="208" y="15" type="curve"/>
      <point x="202" y="53" type="line"/>
      <point x="142" y="41" type="line"/>
    </contour>
    <contour>
      <point x="330" y="633" type="curve"/>
      <point x="331" y="205"/>
      <point x="330" y="168"/>
      <point x="324" y="-5" type="curve"/>
      <point x="327" y="-10" type="line"/>
      <point x="381" y="-1"/>
      <point x="429" y="8"/>
      <point x="477" y="15" type="curve"/>
      <point x="471" y="53" type="line"/>
      <point x="407" y="41" type="line"/>
      <point x="407" y="593" type="line" smooth="yes"/>
      <point x="407" y="645"/>
      <point x="407" y="718"/>
      <point x="426" y="736" type="curve"/>
      <point x="415" y="750" type="line"/>
      <point x="397" y="740"/>
      <point x="382" y="729"/>
      <point x="368" y="715" type="curve"/>
      <point x="321" y="751" type="line"/>
      <point x="304" y="733" type="line"/>
      <point x="325" y="707"/>
      <point x="330" y="679"/>
    </contour>
  </outline>
</glyph>
